<svg height="1164.254" viewBox="0 0 1159.081 1164.254" width="1159.081" xmlns="http://www.w3.org/2000/svg"><path d="m90.719 523.862 97.081-161.711a45.66 45.66 0 0 1 22.5-19.221l3.751-1.462 211.849-86.489a59.762 59.762 0 0 1 45 110.728l-211.858 86.486 26.038-20.684-122.49 147.924z" fill="#ffe0c2"/><path d="m162.59 579.433-18.75 22.578a43.109 43.109 0 0 1 -70-49.933l16.885-28.2z" fill="#fdc068"/><path d="m410.488 418.564c.844 7.312 1.461 14.624 2.293 21.936l1.458 21.937c.625 7.312.844 14.625 1.25 21.937l.844 21.937c1.041 29.249 1.249 58.7.844 87.955-.208 29.249-1.249 58.7-2.5 87.956-1.458 29.249-3.126 58.7-5.417 87.956l-2.915 39.276-18.958 17.551q-33.457 31.016-67.518 61.422l-17.081 15.042-17.288 15.042c-11.456 10.03-23.331 19.849-34.995 29.667-23.542 19.431-47.29 38.858-71.871 57.663-24.583 18.595-48.964 37.4-74.994 54.527l-85.633-78.135 244.15-269.517-22.082 57.454 14.8-334.685z" fill="#51a0ce"/><path d="m535.9 405.193-1.25 3.13a108.121 108.121 0 0 1 -59.79 61.42 107.294 107.294 0 0 0 -41.87 30.71l-.42.42-149.14-126.6.42-.419a106.083 106.083 0 0 0 23.12-46.38 107.71 107.71 0 0 1 50.42-69.36l2.91-1.67a107.488 107.488 0 0 1 115.87 3.94q4.38 3.015 8.5 6.5l9.99 8.36 10.2 8.569a108.324 108.324 0 0 1 31.04 121.38z" fill="#ffe0c2"/><path d="m357.784 437.368-74.573-63.3-5.628 6.685a97.823 97.823 0 1 0 149.159 126.602l5.628-6.686z" fill="#50a0ce"/><path d="m531.045 316.772-1.19 1.71a29.825 29.825 0 0 1 -24.58 12.961h-1.04a29.876 29.876 0 0 1 -24.58-14.421l-24.38-39.689a26.848 26.848 0 0 1 .38-28.021 106.94 106.94 0 0 1 20.51 11.071l-1.1 1.27a3.542 3.542 0 0 0 -.41 3.76l24.37 39.7a6.675 6.675 0 0 0 5.83 3.34 7.057 7.057 0 0 0 6.04-3.13l6.25-8.99a1.222 1.222 0 0 1 .1-.15 107.571 107.571 0 0 1 13.8 20.589z" fill="#fff"/><path d="m471.944 282.558-45.832-40.741a128.909 128.909 0 0 1 50 15.668z" fill="#2b2b2b"/><path d="m432.362 500.669c16.459 24.028 54.373 83.988 66.662 110.31 12.083 26.326 23.958 52.86 35.206 79.6l5 11.909a61.823 61.823 0 0 1 3.956 36.562c-6.247 32.8-12.913 65.392-20 98.191l-5.409 24.449-5.628 24.445c-3.748 16.3-7.708 32.591-11.664 48.886-9.777 40.264-16.54 63.241-25.625 97.568-5.7 21.558-13.777 52.793-23.031 91.332l-116.963-.611 40-403.477 9.166 49.106-124.985-295.199z" fill="#51a0ce"/><path d="m338.636 1085.333 122.827-.682q-4.814 19.635-9.629 39.27l-116.963-.611z" fill="#bca3b4"/><path d="m585.685 615.577 26.452 26.743a43.087 43.087 0 0 1 -56.247 64.974l-27.3-20.266z" fill="#fdc068"/><path d="m528.605 687.028-150.197-111.758a50.678 50.678 0 0 1 -20-35.934l-.416-4.389-18.956-220.2a59.677 59.677 0 1 1 118.95-9.818l18.956 220.2-20.413-40.323 129.164 130.576z" fill="#ffe0c2"/><g fill="#2b2b2b"><path d="m141.758 1148.741-136.034-125.77a17.778 17.778 0 0 1 -1.25-24.86l15.416-17.548 85.2 80.431 50.414 76.481c5.831 8.551-5.834 18.567-13.749 11.266z"/><path d="m359.866 855h-.208a2.271 2.271 0 0 1 -1.874-2.3l12.5-110.519-55.623-131.62a2.053 2.053 0 1 1 3.751-1.671l56.037 132.456-12.5 111.772a2.218 2.218 0 0 1 -2.083 1.882z"/><path d="m241.541 738.005a1.619 1.619 0 0 1 -1.458-.626 2.246 2.246 0 0 1 .209-2.927l17.5-14.624a2.072 2.072 0 0 1 2.707 3.135l-17.499 14.625a5.3 5.3 0 0 1 -1.458.417z"/><path d="m471.944 502.76a2.243 2.243 0 0 1 -1.46-.626l-19.372-19.434a2.066 2.066 0 0 1 2.915-2.924l19.373 19.431a2.027 2.027 0 0 1 .065 2.861c-.021.023-.043.045-.065.066a2.246 2.246 0 0 1 -1.458.626z"/><path d="m471.944 472.885a2.223 2.223 0 0 1 -2.085-1.885l-7.916-99.862a2.057 2.057 0 0 1 1.877-2.088 1.922 1.922 0 0 1 2.076 1.759q0 .06.006.12l7.916 99.863c.209 1.044-.624 1.882-1.874 2.091z"/><path d="m349.243 434.024a2.217 2.217 0 0 1 -2.082-1.88l-6.875-84.4a1.981 1.981 0 1 1 3.957-.208l6.874 84.4c.208 1.043-.624 1.879-1.874 2.088z"/><path d="m283.206 376.152a1.976 1.976 0 0 1 -1.458-3.341c17.914-20.684 20.624-34.682 22.915-46.8 1.666-8.776 3.332-17.133 10.206-26.528a2.086 2.086 0 1 1 3.335 2.506c-6.25 8.568-7.708 16.3-9.585 24.863-2.5 12.745-5.206 27.158-23.956 48.677a1.885 1.885 0 0 1 -1.457.623z"/></g><path d="m90.719 523.862 71.871 55.571 18.122-21.933-76.035-56.827z" fill="#fff"/><path d="m585.685 615.577-57.08 71.451-20.621-15.251 59.37-74.584z" fill="#fff"/><path d="m19.89 980.562 27.5-30.295 87.911 88.376-30.206 22.145z" fill="#bca3b4"/><path d="m381.74 765.79a2 2 0 0 1 -1.874-1.253l-9.374-21.937a2.053 2.053 0 1 1 3.711-1.756c.013.028.025.057.037.085l9.377 21.937a2.074 2.074 0 0 1 -1.044 2.715c-.209 0-.625.209-.833.209z" fill="#2b2b2b"/><path d="m670.958 1162.266h-469.818a15 15 0 0 1 -15-15v-1132.266a15 15 0 0 1 15-15h469.818a15 15 0 0 1 15 15v1132.266a15 15 0 0 1 -15 15zm-454.818-30h439.818v-1102.266h-439.818z" fill="#f9d5ff"/><path d="m674.263 15h469.818v1132.266h-469.818z" fill="#f9d5ff"/><path d="m1144.081 1162.266h-469.818a15 15 0 0 1 -15-15v-1132.266a15 15 0 0 1 15-15h469.818a15 15 0 0 1 15 15v1132.266a15 15 0 0 1 -15 15zm-454.818-30h439.818v-1102.266h-439.818z" fill="#f9d5ff"/><path d="m538.33 1163.438-185.094.816a17.907 17.907 0 0 1 -17.911-17.394l-.454-23.55 116.972.615 88.673 21.515a9.153 9.153 0 0 1 -2.186 18z" fill="#2b2b2b"/><circle cx="1103.197" cy="504.667" fill="#2b2b2b" r="29.444"/><circle cx="910.653" cy="190.182" fill="#fff" r="12.013"/><path d="m559.43 275.243-32.708-25.908a39.1 39.1 0 0 1 -6.774-54.77l.3-.384 38.958-49.723a62.666 62.666 0 1 1 98.323 77.722l-35.806 45.544a44.1 44.1 0 0 1 -62 7.75z" fill="#fdc068"/><path d="m650.681 230.954-8.54 10.863a6.749 6.749 0 0 1 -1.666-4.392 7.045 7.045 0 0 1 6.987-7.1h.1a8.349 8.349 0 0 1 3.119.629z" fill="#2b2b2b"/><path d="m489.442 310.971-24.373-39.7a14.82 14.82 0 0 1 1.458-17.34l71.038-82.1 52.288 41.364-69.58 98.821a18.385 18.385 0 0 1 -30.831-1.044z" fill="#fdc068"/><path d="m628.6 244.952h-.208l-6.666-.846a2.071 2.071 0 0 1 -1.666-2.3 1.951 1.951 0 0 1 2.185-1.688c.035 0 .07.01.105.017l6.473.846a2.951 2.951 0 0 0 2.707-2.923l-.417-13.789a1.983 1.983 0 1 1 3.96-.209l.416 13.789a6.992 6.992 0 0 1 -6.879 7.1z" fill="#2b2b2b"/><path d="m612.351 259.577h-.416c-.417 0-5-1.256-12.709-8.777a2.068 2.068 0 0 1 2.916-2.932c6.666 6.685 10.626 7.521 10.626 7.521a2.067 2.067 0 0 1 1.665 2.3 2.037 2.037 0 0 1 -2.082 1.891z" fill="#2b2b2b"/><path d="m551.1 268.56-21.454-16.922 5.831 39.067z" fill="#2b2b2b"/><ellipse cx="615.266" cy="212.359" fill="#2b2b2b" rx="7.083" ry="7.103"/><path d="m670.681 192.513c-30-4.179-57.289-25.907-67.079-43.461l-28.54 35.1-12.292-8.772-14.79 2.3-16.88 2.72 25-35.935a60.976 60.976 0 0 1 85.056-15.169q.817.573 1.616 1.171l41.046 30.92a15.667 15.667 0 0 1 5.206 6.477 17.572 17.572 0 0 1 -18.336 24.654z" fill="#2b2b2b"/><path d="m546.73 186.872 11.256 8.565 16.041-21.1a11.269 11.269 0 0 0 -2.086-15.669l-2.29-1.668a11.19 11.19 0 0 0 -15.624 2.089l-9.165 12.111a10.9 10.9 0 0 0 1.416 15.312c.148.126.298.245.452.36z" fill="#fdc068"/><ellipse cx="585.893" cy="123.985" fill="#2b2b2b" rx="22.29" ry="22.354"/><ellipse cx="620.267" cy="153.652" fill="#2b2b2b" rx="34.582" ry="34.682"/><ellipse cx="670.889" cy="166.815" fill="#2b2b2b" rx="37.497" ry="37.605"/><ellipse cx="632.351" cy="123.985" fill="#2b2b2b" rx="31.247" ry="31.337"/><path d="m185.875 364.763v187l-15.533 18.637 5.811-188.845z" fill="#2b2b2b"/><path d="m185.875 796.763v204l-24.03 17.791q3.779-101.923 7.558-203.846z" fill="#2b2b2b"/></svg>