<svg xmlns="http://www.w3.org/2000/svg" viewBox="0 0 2500 2500" width="2500" height="2500"><g transform="translate(337.0 2202.0) rotate(0.0 562.5 46.0) scale(0.8965750831822438 0.8932038834951457)"><svg width="1254.775" height="103" viewBox="0 0 1254.775 103"><g fill="#5b2448"><ellipse cx="1160.51" cy="82.5" rx="94.264" ry="20.5"/><ellipse cx="952.381" cy="21.538" rx="99.035" ry="21.538"/><ellipse cx="75.421" cy="18.195" rx="75.421" ry="16.402"/></g></svg></g><g transform="translate(469.0 1145.0) rotate(0.0 300.0 538.5) scale(0.8933051247426165 0.8933118562472939)"><svg width="671.663" height="1205.626" viewBox="0 0 671.663 1205.626"><path d="M490.122 2.5h179.041v1199.572H490.122z" fill="#ffcf2d"/><path d="M669.163 1204.573H490.122a2.5 2.5 0 0 1-2.5-2.5V2.5a2.5 2.5 0 0 1 2.5-2.5h179.041a2.5 2.5 0 0 1 2.5 2.5v1199.573a2.5 2.5 0 0 1-2.5 2.5zm-176.541-5h174.041V5H492.622z" fill="#ffcf2d"/><path d="M245.785 528.037h180.094v675.089H245.785z" fill="#66b0f0"/><path d="M425.879 1205.625H245.785a2.5 2.5 0 0 1-2.5-2.5V528.037a2.5 2.5 0 0 1 2.5-2.5h180.094a2.5 2.5 0 0 1 2.5 2.5v675.088a2.5 2.5 0 0 1-2.5 2.5zm-177.594-5h175.094V530.537H248.285z" fill="#66b0f0"/><g fill="#f94f46"><path d="M2.5 1004.074h180.094v197.998H2.5z"/><path d="M182.594 1204.573H2.5a2.5 2.5 0 0 1-2.5-2.5v-198a2.5 2.5 0 0 1 2.5-2.5h180.094a2.5 2.5 0 0 1 2.5 2.5v198a2.5 2.5 0 0 1-2.5 2.5zm-177.594-5h175.094v-193H5z"/></g></svg></g><g transform="translate(945.0 242.0) rotate(0.0 536.5 1019.5) scale(0.8940921589867512 0.8936319410965509)"><svg width="1200.1" height="2281.7" viewBox="0 0 1200.1 2281.7"><path d="M540.3 1892.2c-36.9-60-81.1-106.4-105.6-200.6-22.5-86.5-64.2-95.6-86.6-75.8-26.9 23.6-33.2 133.2 192.2 276.4z" fill="#5b2448"/><path d="M549.7 1888c-2.9 1.3-6.1 2.7-9.5 4.2-22.9 10-54.7 22.6-86.8 34.6-32.3 12.2-65 23.8-89.1 31.7l-38.7-70.2s-5.8-59.4 3.4-76.1c17.3-10.3 33-20.2 47.3-29.4 3.5-2.3 6.9-4.5 10.2-6.7 2.1-1.4 4.2-2.7 6.2-4.1 24.4-16.2 43.1-29.7 55-38.6 10.2-7.6 15.6-12 15.6-12s69.9 104.9 86.4 166.6z" fill="#f4ada2"/><path d="M453.5 1926.8c-32.3 12.2-65 23.8-89.1 31.7l-38.7-70.2 3.4-76.1c17.3-10.3 33-20.2 47.3-29.4z" fill="#66b0f0"/><path d="M432.2 1934.8 356 1795.9c-2.8 1.7-5.6 3.5-8.5 5.3l75.2 137.1c3.1-1.2 6.3-2.4 9.5-3.5z" fill="#fff"/><path d="M540.3 1892.2c-85.3-50.6-147.5-120.1-147.5-120.1 24.4-16.2 43.1-29.7 55-38.6z" fill="#9b3c82"/><path d="M784.6 1977.5c-61.1 2.1-123.5-1.8-230.6-84.3-54.8-42.1-106.4-49.5-113.7-10.5-11.8 62 109.4 139 344.3 94.8z" fill="#5b2448"/><path d="M784.6 1978.6s-2.3 8.3-6.4 21.6c-.7 2.1-1.3 4.4-2.1 6.8-1.2 3.8-2.5 7.8-3.8 12.1-8.3 25.9-20.2 60.3-33.5 90.9-.5 1.2-1.1 2.5-1.6 3.7l-78.9.7-57.9-49.5c1.3-15.3 2.5-36.2 3.7-57.9.1-2.3.2-4.5.4-6.8.2-4 .4-7.9.6-11.9 1-20 1.9-39.5 2.5-54.8l.1-1.9c.7-17.3 1.2-28.8 1.2-28.8z" fill="#f4ada2"/><path d="M784.6 1978.6c-42.1 9.5-150.6 11.6-179.6 9.8 1-20 1.9-39.5 2.5-54.8l.1-1.9z" fill="#9b3c82"/><path d="M772.3 2019.1c-8.3 25.9-20.2 60.3-33.5 90.9-.5 1.2-1.1 2.5-1.6 3.7l-78.9.7-57.9-49.5c1.3-15.3 2.5-36.2 3.7-57.9z" fill="#66b0f0"/><path d="M764.4 2043c-44.2-3.2-125.3-8.9-161.8-10.9-.2 3.4-.4 6.7-.6 10 35.6 2 114.3 7.5 159 10.7 1.2-3.3 2.3-6.6 3.4-9.8zm199.2 200.2c-9.8 11.7-30.3 27.9-73.2 31.7-79.1 7-317.6 3.4-317.6 3.4 4.6-25.9 7.5-42.8 9.9-57.7l-.3.3c3.1-24.5 6.4-50.1 9.4-73.3 4.1-32.5 7.5-60.4 9.3-74.2v-.3c.7-5.8 1.2-9 1.3-9 28.4 2.1 40.9 27.7 64 36.1.8.3 1.5.5 2.3.8 19.7 6.5 62.8 12.6 93.5 16.1 37.8 4.3 71.5 16.9 88.5 24.4 3.1 1.3 5.7 2.6 7.8 3.6 3.7 1.8 7.2 3.7 10.7 5.6 1.1.6 2.3 1.3 3.4 1.9l5.1 3 1.5.9c10.8 6.5 21.1 13.7 30.8 21.6.8.7 1.6 1.3 2.4 2 .3.2.6.5.8.7s.6.5.8.7c.1.1.2.1.2.2.1.1.3.2.4.4.1 0 .1.1.1.1l2.1 1.8c.2.2.4.3.6.5.4.3.8.7 1.2 1 .2.1.3.3.5.4.5.5 1 .9 1.5 1.3l.1.1.5.5c.2.2.4.3.5.5.3.3.7.6 1 .9l.5.5c.1.1.2.1.2.2s.2.1.3.2c.5.5 1 1 1.5 1.4l2 2 .9.9c.4.3.7.7 1 1.1.6.6 1.2 1.3 1.8 1.9l1.2 1.2.6.6c.4.4.7.8 1.1 1.2.3.3.6.6.8.9.9.9 1.7 1.9 2.5 2.8.4.4.8.9 1.1 1.3l1.8 2.1 1.4 1.7.7.9c.2.3.5.6.7.8.5.6.9 1.1 1.3 1.7.9 1.1 1.8 2.3 2.6 3.4.3.4.6.7.8 1.1 1.7 2.3 3.2 4.5 4.6 6.6.3.4.6.8.8 1.2.5.7.9 1.4 1.4 2.1.7 1.1 1.3 2.1 1.9 3.1.3.5.6.9.8 1.4 2.1 3.5 3.5 6.3 4.5 8.4.1.3.3.5.4.8.5 1.1.9 1.9 1.1 2.3.1.1.1.2.1.3.4-.2.4-.1.5-.1z" fill="#fff"/><path d="M954.9 2227.2c-68.1 48.6-148.3 23.1-187.8 6.7-34.1-14.1-45.3 4.1-73.1-4.7-23.2-7.4-30.5-23.9-60-27.4-17.7-2.1-40.6 9.3-51.3 18.7l-.3.3c3.1-24.5 6.4-50.1 9.4-73.3 4.1-32.5 7.5-60.4 9.3-74.2v-.3c.7-5.8 1.2-9 1.3-9 28.4 2.1 40.9 27.7 64 36.1.8.3 1.5.5 2.3.8 19.7 6.5 62.8 12.6 93.5 16.1 37.8 4.3 71.5 16.9 88.5 24.4 3.1 1.3 5.7 2.6 7.8 3.6 3.7 1.8 7.2 3.7 10.7 5.6 1.1.6 2.3 1.3 3.4 1.9l5.1 3 1.5.9c10.8 6.5 21.1 13.7 30.8 21.6.8.7 1.6 1.3 2.4 2 .3.2.6.5.8.7s.6.5.8.7c.1.1.2.1.2.2.1.1.3.2.4.4.1 0 .1.1.1.1.2.2.4.3.6.5.5.5 1 .9 1.6 1.4.2.2.4.3.6.5.4.3.8.7 1.2 1 .2.1.3.3.5.4.5.5 1 .9 1.5 1.3l.1.1.5.5c.2.2.4.3.5.5.3.3.7.6 1 .9l.5.5c.1.1.2.1.2.2s.2.1.3.2c.5.5 1 1 1.5 1.4l2 2 .4.4.5.5c.4.3.7.7 1 1.1.4.4.8.8 1.2 1.3l.6.6.3.3.9.9.6.6c.4.4.7.8 1.1 1.2.3.3.6.6.8.9.9.9 1.7 1.9 2.5 2.8.4.4.8.9 1.1 1.3l1.8 2.1 1.4 1.7.7.9c.2.3.5.6.7.8.5.6.9 1.1 1.3 1.7.9 1.1 1.8 2.3 2.6 3.4.3.4.6.7.8 1.1 1.7 2.3 3.2 4.5 4.6 6.6.3.4.6.8.8 1.2.5.7.9 1.4 1.4 2.1.3 0 .4.1.5.2z" fill="#5b2448"/><path d="M592.6 2171.8c-1.2 0-2-.1-2.1-.1-1.6-.2-2.8-1.7-2.7-3.3.2-1.6 1.6-2.8 3.2-2.7.2 0 18.4 1.5 41.1-14.7 5-3.6 9.1-6.8 12.8-9.6 14.1-11 21.8-17 50.2-20.8 1.6-.2 3.2.9 3.4 2.5s-.9 3.2-2.5 3.4h-.1c-26.7 3.6-33.6 8.9-47.3 19.6-3.7 2.9-7.8 6.1-13 9.8-20.3 14.5-37.2 15.9-43 15.9z" fill="#fff"/><path d="M863.9 2257.9c-4.5 0-9.1-.2-13.7-.5-26.2-1.8-54.5-9-83.9-21.2-18.7-7.8-30.9-6.1-42.6-4.4-9 1.3-18.3 2.6-29.7-.7-10.8-3.1-17.6-8.2-24.2-13.1-8.2-6.1-16-11.9-31.3-14.2-26.1-4-53.3 15.9-53.6 16.1-1.1.8-2.7.6-3.5-.5s-.6-2.7.5-3.5c1.2-.9 29.1-21.4 57.3-17.1 16.5 2.5 25.1 8.9 33.5 15.1 6.5 4.9 12.7 9.4 22.6 12.3 10.4 3 18.8 1.8 27.6.6 11.8-1.7 25.2-3.6 45.2 4.7 29 12 56.7 19 82.4 20.8 39.1 2.7 73.8-6.4 103-27.3 1.1-.8 2.7-.5 3.5.7.8 1.1.5 2.7-.7 3.5-26.7 19.1-57.8 28.7-92.4 28.7z" fill="#5b2448"/><path d="M633.2 2264.4c-8.7 0-16.9-2-23.1-5.6-6.7-3.9-10.5-9.3-10.5-15.1s3.6-11.2 10.3-15.2c6.3-3.7 14.6-5.8 23.4-5.8h.3c8.7 0 16.9 2 23.1 5.6 6.7 3.9 10.5 9.3 10.5 15.1 0 5.8-3.6 11.2-10.3 15.2-6.3 3.7-14.6 5.8-23.4 5.8zm.4-36.7h-.3c-7.9 0-15.3 1.9-20.9 5.1-5.1 3-7.9 6.9-7.9 10.9s2.9 7.8 8 10.8c5.5 3.2 12.8 4.9 20.6 4.9h.3c7.9 0 15.3-1.9 20.9-5.1 5.1-3 7.9-6.9 7.9-10.9s-2.9-7.8-8-10.8c-5.4-3.2-12.8-4.9-20.6-4.9z" fill="#5b2448"/><path d="M704.8 2281.7c-70.1 0-130.9-.9-132.1-.9-1.4 0-2.5-1.2-2.5-2.5v-.4c4.8-27 7.6-43.1 9.9-57.7 4.4-27.3 6.9-48.8 13.6-106.3 1.4-11.9 3-25.4 4.8-40.9v-.4l.7-6.3c.2-1.4 1.4-2.3 2.8-2.2 1.3.2 2.3 1.4 2.2 2.7l-.7 6.4v.3c-1.8 15.5-3.4 29-4.8 40.9-6.7 57.6-9.2 79.1-13.6 106.5-2.3 14.1-5 29.5-9.4 54.9 27.6.4 241.1 3.1 314.4-3.4 39.5-3.5 60.1-17.8 70.5-29.6-.2-.4-.4-.8-.6-1.3-.1-.2-.2-.5-.4-.7-1.3-2.6-2.8-5.4-4.5-8.2-.3-.4-.5-.9-.8-1.3-.6-1-1.2-2-1.9-3.1-.4-.7-.9-1.4-1.3-2.1-.3-.4-.5-.8-.8-1.2-1.5-2.2-3-4.4-4.6-6.5-.3-.4-.5-.7-.8-1.1-.9-1.2-1.7-2.3-2.6-3.4-.6-.8-1.3-1.6-2-2.5l-.7-.9c-.3-.4-.7-.8-1-1.2l-.4-.5-1.8-2.1-.3-.4c-.3-.3-.5-.6-.8-.9-.8-.9-1.6-1.9-2.5-2.8-.3-.3-.5-.6-.8-.9l-.1-.1c-.3-.4-.7-.8-1-1.1-.2-.2-.4-.4-.6-.7l-1.1-1.2c-.6-.6-1.2-1.2-1.8-1.9l-.4-.4-.6-.6-.8-.8-2-2-.1-.1c-.6-.6-1.2-1.2-1.9-1.8l-1.5-1.5-.5-.5c-.7-.6-1.4-1.3-2.1-1.9-.2-.2-.3-.3-.5-.4-.6-.5-1.2-1-1.7-1.5l-.2-.2c-.6-.6-1.3-1.1-1.9-1.7l-.1-.1c-.5-.5-1-.9-1.5-1.3-.3-.3-.6-.5-.8-.7-.8-.7-1.6-1.3-2.4-2-9.7-7.8-19.9-15-30.5-21.4-.4-.3-.8-.5-1.2-.7l-.3-.2c-1.6-1-3.3-2-5.1-3-1.1-.6-2.2-1.2-3.3-1.9-3.7-2-7.2-3.8-10.6-5.5-2.4-1.2-5-2.4-7.7-3.6-15.5-6.7-42.6-15.8-83.9-20.8-1.4-.2-2.3-1.4-2.2-2.8.2-1.4 1.4-2.3 2.8-2.2 42 5.1 69.6 14.4 85.3 21.2 2.8 1.2 5.4 2.4 7.9 3.7 3.4 1.7 7 3.5 10.8 5.6 1.2.6 2.3 1.3 3.4 1.9 1.8 1 3.5 2 5.2 3l.2.1c.4.3.9.5 1.3.8 10.9 6.5 21.2 13.8 31.1 21.8.8.7 1.6 1.3 2.4 2 .3.2.6.5.9.7.5.4 1 .8 1.5 1.3l.1.1c.7.6 1.4 1.2 2 1.7l.2.2c.6.5 1.2 1 1.8 1.6l.5.5c.7.6 1.4 1.3 2.1 2l.5.5c.5.5 1 1 1.6 1.5.6.6 1.3 1.2 1.9 1.8l.1.1c.7.7 1.4 1.3 2 2l.9.9.6.6.4.4c.6.7 1.3 1.3 1.9 1.9l1.2 1.2.6.6c.4.4.8.8 1.1 1.2l.9.9c.9.9 1.7 1.9 2.5 2.8.3.3.5.6.8.9l.3.4c.6.7 1.2 1.5 1.8 2.2l.4.5c.4.4.7.8 1.1 1.3l.7.9c.7.8 1.4 1.7 2 2.5.9 1.1 1.7 2.2 2.6 3.4.3.4.6.8.8 1.1 1.6 2.1 3.2 4.4 4.7 6.6.3.4.6.8.9 1.3.5.7.9 1.4 1.4 2.1.7 1.1 1.3 2.1 2 3.2.3.5.6.9.8 1.4 1.7 3 3.3 5.8 4.6 8.5.1.3.3.6.4.8.5 1.1.9 2 1.1 2.4v.1c0 .1.1.1.1.2v.1c.6.9.4 2-.4 2.7-19.4 23.2-51.4 30.5-74.9 32.6-38.8 3.9-116.7 4.8-185.7 4.8z" fill="#5b2448"/><path d="M739.8 2183.6c-4.1 0-7.5-3.4-7.5-7.5 0-1 .2-2 .6-2.9.7-1.7 18.5-43 66.5-59.8 3.9-1.4 8.2.6 9.6 4.5s-.6 8.2-4.5 9.6h-.1c-41.5 14.6-57.5 51.1-57.6 51.5-1.3 2.8-4 4.6-7 4.6zm35.6 11.4c-4.1 0-7.5-3.4-7.5-7.5 0-1 .2-2.1.6-3 .8-1.8 19.6-43.5 68.9-58 4-1.2 8.2 1 9.4 5s-1 8.2-5 9.4c-.1 0-.1 0-.2.1-42.4 12.4-59.3 49.3-59.4 49.6-1.2 2.7-3.9 4.4-6.8 4.4zm40.8 8.5c-4.1 0-7.5-3.4-7.5-7.5 0-1.1.2-2.2.7-3.1.7-1.5 18.1-37.8 63.1-50.4 4-1.1 8.1 1.2 9.2 5.2s-1.2 8.1-5.2 9.2c-38.2 10.7-53.4 42-53.6 42.3-1.2 2.6-3.8 4.3-6.7 4.3z" fill="#ffcf2d"/><path d="M372.6 2214c-15.1-2.1-39.7-10.8-65.8-45.1-48-63.3-171.9-267.1-171.9-267.1 24.4-9.9 40.3-16.4 54.2-22.3-.1 0-.2-.1-.4-.1 22.4-10.4 45.8-21.2 67.1-31.1 29.7-13.8 55.1-25.7 67.8-31.6.1-.1.2-.1.3-.1 5.3-2.5 8.3-3.8 8.3-3.7 13.3 25.2-1.7 49.3 3.5 73.4.2.8.3 1.6.5 2.4 5 20.2 22.7 59.8 36.1 87.8 16.5 34.3 23.7 69.5 26.4 87.9.5 3.3.8 6.2 1.1 8.5.4 4.1.7 8.1 1 12 .1 1.3.1 2.6.2 3.8.1 2 .2 3.9.2 5.9v1.8c.3 12.6-.4 25.1-1.9 37.6-.1 1-.3 2.1-.4 3.1 0 .4-.1.7-.1 1.1s-.1.7-.1 1.1v.3c0 .2-.1.4-.1.6v.2c-.1.9-.3 1.9-.4 2.8 0 .2-.1.5-.1.7l-.3 1.5c0 .2-.1.4-.1.6-.1.7-.2 1.3-.3 2v.2l-.1.7c0 .2-.1.5-.1.7-.1.4-.2.9-.3 1.4 0 .2-.1.5-.1.7 0 .1 0 .2-.1.3s0 .2-.1.3c-.1.7-.3 1.3-.4 2l-.6 2.7-.3 1.2c-.1.5-.2 1-.3 1.4-.2.9-.4 1.7-.6 2.6-.1.5-.3 1.1-.4 1.6-.1.3-.2.6-.2.9-.1.5-.3 1-.4 1.5l-.3 1.2c-.3 1.2-.7 2.4-1 3.6-.2.6-.3 1.1-.5 1.6-.3.9-.6 1.8-.8 2.7-.2.7-.5 1.4-.7 2.1l-.4 1c-.1.3-.2.7-.4 1-.2.7-.5 1.3-.7 2-.5 1.4-1 2.7-1.5 4-.2.4-.3.9-.5 1.3-1 2.7-2.1 5.1-3.1 7.4-.2.5-.4.9-.6 1.4-.3.8-.7 1.6-1.1 2.3-.5 1.2-1.1 2.2-1.6 3.3-.2.5-.5 1-.7 1.4-1.9 3.6-3.5 6.4-4.7 8.3-.2.3-.3.5-.5.7-.6 1-1.1 1.7-1.4 2.1-.1.1-.1.2-.3.4 0-.1 0 0 0 0z" fill="#fff"/><path d="M381.5 2198.2c-77.4-31.8-98.4-113.3-105.6-155.4-6.2-36.4-27.6-36.2-34.9-64.4-6.1-23.6 4.1-38.6-8.8-65.4-7.7-16.1-29.5-29.5-43.1-33.5-.1 0-.2-.1-.4-.1 22.4-10.4 45.8-21.2 67.1-31.1 29.7-13.8 76.4-35.6 76.4-35.5 13.3 25.2-1.7 49.3 3.5 73.4.2.8.3 1.6.5 2.4 5 20.2 22.7 59.8 36.1 87.8 16.5 34.3 23.7 69.5 26.4 87.9.5 3.3.8 6.2 1.1 8.5.4 4.1.7 8.1 1 12 .1 1.3.1 2.6.2 3.8.1 2 .2 3.9.2 5.9v1.8c.3 12.6-.4 25.1-1.9 37.6-.1 1-.3 2.1-.4 3.1 0 .4-.1.7-.1 1.1s-.1.7-.1 1.1v.3c0 .2-.1.4-.1.6v.2c0 .2-.1.5-.1.7-.1.7-.2 1.4-.3 2 0 .2-.1.5-.1.7l-.3 1.5c0 .2-.1.4-.1.6-.1.7-.2 1.3-.3 2v.2l-.1.7c0 .2-.1.5-.1.7-.1.4-.2.9-.3 1.4 0 .2-.1.5-.1.7 0 .1 0 .2-.1.3s0 .2-.1.3c-.1.7-.3 1.3-.4 2l-.6 2.7-.1.5c0 .2-.1.4-.2.6-.1.5-.2 1-.3 1.4-.1.6-.3 1.2-.4 1.7l-.2.8c0 .1-.1.3-.1.4l-.3 1.2c-.1.3-.2.6-.2.9-.1.5-.3 1-.4 1.5l-.3 1.2c-.3 1.2-.7 2.4-1 3.6-.2.6-.3 1.1-.5 1.6-.3.9-.6 1.8-.8 2.7-.2.7-.5 1.4-.7 2.1l-.4 1c-.1.3-.2.7-.4 1-.2.7-.5 1.3-.7 2-.5 1.4-1 2.7-1.5 4-.2.4-.3.9-.5 1.3-1 2.7-2.1 5.1-3.1 7.4-.2.5-.4.9-.6 1.4-.3.8-.7 1.6-1.1 2.3-.2.5-.2.6-.3.8z" fill="#5b2448"/><path d="M331.2 1926.4c-.9 0-1.7-.4-2.3-1.1-17.2-20.7-25.4-23.7-41.7-29.6-4.4-1.6-9.3-3.4-15.2-5.8-28-11.6-37-29.1-37.4-29.8-.7-1.5-.1-3.3 1.3-4 1.5-.7 3.3-.1 4 1.3.1.3 8.6 16.4 34.3 27 5.7 2.4 10.6 4.1 14.9 5.7 16.8 6.1 26 9.4 44.3 31.4 1.1 1.3.9 3.2-.4 4.2-.4.5-1.1.7-1.8.7z" fill="#fff"/><path d="M381.5 2200.7c-.4 0-.8-.1-1.1-.3-34.2-14.1-61.2-39.3-80.2-74.9-12.4-23.2-21.4-50.9-26.7-82.4-3.4-20-11.3-29.4-19-38.4-5.9-6.9-11.9-14.1-15.2-25.5-3.1-10.8-2.4-19.3-1.8-27.5.8-10.2 1.5-19.9-4.6-34-10.5-24.2-42.2-36.3-42.5-36.4-1.3-.5-2-1.9-1.5-3.2s1.9-2 3.2-1.5c1.4.5 34 12.9 45.4 39.1 6.6 15.3 5.8 26 5 36.4-.6 8.1-1.2 15.8 1.6 25.7 3 10.4 8.4 16.9 14.2 23.7 7.7 9.1 16.5 19.5 20.1 40.8 5.2 30.9 14 58.1 26.2 80.8 18.5 34.6 44.7 59.1 77.9 72.7 1.3.5 1.9 2 1.4 3.3-.4 1-1.4 1.6-2.4 1.6z" fill="#5b2448"/><path d="M207 1965.4c-9.1 0-20.1-7.3-27.9-19.6-4.7-7.4-7.5-15.5-7.7-22.8-.3-7.8 2.3-13.8 7.2-16.9s11.4-2.9 18.3.7c6.5 3.3 12.7 9.3 17.4 16.7s7.5 15.5 7.7 22.8c.3 7.8-2.3 13.8-7.2 16.9-2.4 1.4-5.1 2.2-7.8 2.2zm-20.7-56.5c-1.8 0-3.6.4-5.1 1.4-3.4 2.1-5.1 6.6-4.9 12.5.2 6.4 2.7 13.6 7 20.3 8.4 13.2 21.6 20.4 28.8 15.8 3.4-2.1 5.1-6.6 4.9-12.5-.2-6.4-2.7-13.6-7-20.3s-9.7-12-15.4-14.9c-2.5-1.4-5.4-2.2-8.3-2.3z" fill="#5b2448"/><path d="M372.8 2216.5h-.6c-29.9-4.1-53.2-27.3-67.4-46.1-47.5-62.6-170.8-265.3-172-267.3-.7-1.2-.3-2.7.8-3.4.1-.1.2-.1.4-.2 25.4-10.4 40.5-16.5 54.1-22.3 25.5-10.8 45-20.2 97.3-45.1 10.8-5.2 23.1-11 37.1-17.7.1-.1.2-.1.4-.2l5.8-2.7c1.2-.6 2.7-.1 3.3 1.2s.1 2.7-1.2 3.3l-5.8 2.8c-.1 0-.1 0-.2.1h-.1c-14.1 6.7-26.3 12.5-37.1 17.7-52.3 24.9-71.9 34.3-97.5 45.2-13.2 5.6-27.7 11.5-51.5 21.2 14.4 23.6 125.7 205.8 170.2 264.4 24 31.6 47 41.4 62.6 43.9.2-.3.5-.7.8-1.2.1-.2.3-.5.4-.7 1.5-2.5 3.1-5.2 4.6-8.1.2-.4.5-.9.7-1.4.5-1 1-2.1 1.6-3.2.3-.7.7-1.5 1-2.2.2-.5.4-.9.6-1.3 1.1-2.4 2.1-4.9 3.1-7.3.2-.4.3-.8.5-1.2.5-1.4 1-2.7 1.5-4 .4-1 .7-2 1-3l.4-1.1c.2-.5.3-1 .5-1.4l.2-.7c.3-.9.6-1.7.8-2.6l.1-.5c.1-.4.2-.7.3-1.1.4-1.2.7-2.4 1-3.6.1-.4.2-.8.3-1.1v-.1c.1-.5.3-1 .4-1.5.1-.3.2-.6.2-.9l.4-1.6c.2-.8.4-1.7.6-2.5l.1-.6c.1-.3.1-.5.2-.8l.3-1.2.6-2.7c.2-.9.4-1.7.5-2.6.1-.7.3-1.4.4-2.1l.1-.7c.2-.9.3-1.8.5-2.8 0-.2.1-.4.1-.6.1-.8.3-1.5.4-2.3v-.1c.1-.9.3-1.7.4-2.6v-.1c.1-.7.2-1.3.3-1.9.1-.4.1-.7.1-1 .1-1.1.3-2.1.4-3.1 1.5-12.4 2.1-24.8 1.9-37.2v-1.7c0-1.9-.1-3.8-.2-5.9-.1-1.3-.1-2.5-.2-3.8-.3-4.2-.6-8.1-1-11.9-.3-2.7-.6-5.5-1.1-8.4-2.5-16.7-9.3-44.4-27-82.2-.6-1.2 0-2.7 1.2-3.3s2.7 0 3.3 1.2c18 38.3 24.8 66.6 27.4 83.5.5 3 .8 5.9 1.1 8.6.4 3.8.7 7.8 1 12.1.1 1.3.1 2.6.2 3.9.1 2.1.2 4.1.2 6v1.8c.3 12.7-.4 25.3-1.9 37.9-.1 1-.3 2.1-.4 3.1 0 .4-.1.8-.2 1.2-.1.6-.2 1.3-.3 1.9v.1c-.1.9-.3 1.8-.4 2.7v.1c-.1.8-.3 1.5-.4 2.3 0 .2-.1.4-.1.7-.1.9-.3 1.9-.5 2.9l-.1.7c-.1.7-.3 1.4-.4 2.1-.2.9-.4 1.8-.5 2.7-.2.9-.4 1.9-.6 2.8l-.3 1.2c0 .2-.1.5-.2.9l-.1.5c-.2.9-.4 1.8-.6 2.6l-.4 1.6c-.1.3-.2.6-.2.8-.1.5-.3 1.1-.4 1.6l-.3 1.2c-.3 1.2-.7 2.4-1 3.6-.1.4-.2.8-.3 1.1l-.1.5-.9 2.7-.2.6c-.2.5-.3 1-.5 1.5l-.4 1c-.3 1-.7 2.1-1.1 3.1-.5 1.3-.9 2.6-1.5 4.1-.2.4-.3.9-.5 1.3-1 2.5-2 5-3.1 7.5-.2.5-.4.9-.6 1.4-.3.8-.7 1.5-1.1 2.3-.6 1.2-1.1 2.3-1.6 3.3-.2.5-.5 1-.7 1.4-1.6 3.1-3.2 5.9-4.8 8.5-.2.3-.3.5-.5.7-.7 1.1-1.2 1.8-1.5 2.3 0 .1-.1.1-.1.2l-.1.1c-.3.8-1.1 1.3-1.9 1.2z" fill="#5b2448"/><path d="M395.5 2025.9c-1.8 0-3.6-.7-5-1.9-33-29.1-72.7-25.2-73.1-25.2-4.1.5-7.8-2.5-8.3-6.6s2.5-7.8 6.6-8.3c1.9-.2 46.5-4.8 84.7 28.8 3.1 2.7 3.4 7.5.7 10.6-1.4 1.6-3.5 2.6-5.6 2.6zm6.8 39.4c-2 0-3.9-.8-5.3-2.1-31.7-31.2-71.9-27.7-72.3-27.7-4.1.4-7.8-2.6-8.2-6.7s2.6-7.8 6.7-8.2c1.9-.2 47.6-4.1 84.2 31.9 3 2.9 3 7.7.1 10.6-1.3 1.4-3.2 2.2-5.2 2.2zm3.1 38.3c-2 0-3.9-.8-5.3-2.2-28-28.1-62.7-26.1-63-26.1-4.1.3-7.7-2.9-7.9-7-.3-4.1 2.8-7.6 6.9-7.9 1.7-.1 41.8-2.6 74.7 30.5 2.9 2.9 2.9 7.7 0 10.6-1.5 1.3-3.4 2.1-5.4 2.1z" fill="#ffcf2d"/><path d="M924.1 1513.6c-17.1 60.9-49.4 118.6-93.3 170.6-4.1 70-17.8 208-46.2 294.4-95.8 12.6-169.1-38.3-227.5-83.2-54.8-42.1-107.4-52.7-116.9-12.6 7.4-50.6 14.7-71.6 27.4-103.2-11.6-29.5-21-41.9-31.1-80.6-29-111.1-75.3-95.3-88.5-83.2 40.5-41.6 135.3-44.8 172.4-43.5 3.5-129.2-58.7-232.4-102.9-349.3-33.6-88.7-42.4-172.6-35.2-237.2 1.8-17.5 5.3-34.8 10.3-51.7 1.9-6.2 4-12.1 6.3-17.7 26.9-65.2 357.1-28.9 357.1-28.9s5 17.9 18 49.8c13 32 37.2 76.2 65.8 134 61.7 124.8 127 290.1 84.3 442.3z" fill="#21a0aa"/><path d="M774.1 937.3c-5.5 2.9-11.1 5.7-16.7 8.4-29.6 13.9-60.6 24.8-92.3 32.7-65.4 16.6-127.5 20.4-169.5 20.8-38.1.4-76.2-4.1-113.2-13.4 1.8-17.5 5.3-34.8 10.3-51.7 82 21.6 176.1 12.1 253.5-7.5.2-.1.4-.1.6-.1 30.8-7.7 60.9-17.8 90.2-30.1.9-.4 1.8-.8 2.6-1.1 5.9-2.5 11.4-5.1 16.6-7.7 0-.1 5 17.8 17.9 49.7z" fill="#5b2448"/><path d="M831.6 1534.9c-6.9-78.2-19.9-151.1-38.8-216.9-55-192-51.6-268-51.5-268.8.1-1.4-1-2.5-2.3-2.6-1.4-.1-2.6 1-2.7 2.3 0 .8-1 19.4 4.9 62.2 5.4 39.4 17.9 107.4 46.8 208.2 18.8 65.4 31.7 138.1 38.6 215.9 4.6 51.7 5.9 105.1 4.2 149 1.8-2.1 3.6-4.3 5.3-6.4 1.3-42.6-.2-93.4-4.5-142.9zm-301.3-112.5c-.1-1.4-1.2-2.5-2.6-2.4s-2.5 1.2-2.4 2.6c5.3 141.4-13.4 250.8-60.3 350.5.8 2 1.8 4.3 2.6 6.5 48.8-101.6 68.2-212.9 62.7-357.2z" fill="#6ce0dc"/><path d="M311.2 898.5c61.6 4.7 208 49 290.2 103.7s102.2 103.2 110.6 125.3-1.1 29.5-20 9.5c-23.6-24.9-35.8-37.9-35.8-37.9s21.1 41.1 19 88.5-19 37.9-22.1 19c0 0-6.3 39-28.4-11.6 0 0 7.4 37.9-28.4-2.1-68.6-76.6-124.3-107.4-313.3-113.8-192.7-6.5-225.9-49.4-225.9-49.4zm851.5-571.3c-30.8 85.3-58 217.9-106.4 324.9-9.9 22.2-21.3 43.8-34.2 64.4-20.5 32.5-44.3 59.9-72.3 79.2-39.3-133.5-85.4-261.2-86.8-265.1v-.2c2.4-3.4 108.9-153 136.4-211.8 26.8-57.4 17.3-83.6 1.9-103.8S939.8 160 968.6 159c29.8-1 64.5 27.1 101.9 9.6 43.8-20.4 73-71.1 98.5-95.8 24.3-23.6 33.6-16.3 22.1 9.6-11.7 26.4-26.4 62.2-26.4 62.2 2.5 1.4 4.2 3.9 4.8 6.7 0 0 11.5 0 17.3 18.3 13.4 2.8 25.4 20.7-24.1 157.6z" fill="#f4ada2"/><path d="M1083.9 280.9c-.3 1.3.5 2.7 1.8 3 .2 0 .4.1.6.1 1.1 0 2.1-.8 2.4-1.9 1.7-6.7 5.8-29.5-6.6-56.7.4.3.7.5 1.2.7 1.1.5 2.4.8 3.6.8 6.7 0 16-7.1 26.7-20.2-10.4 24.9-12.2 39.3-5.5 43 1 .5 2.1.8 3.3.8 8 0 20-11.8 31.1-26.3-5.7 21.3-5.3 32.8 1.2 35.2.7.2 1.4.4 2.1.4 11.1 0 30.3-25.9 41.8-51.3.5-1.2 0-2.7-1.2-3.3-1.3-.6-2.7 0-3.3 1.2-13.2 29.4-32.2 50.2-37.7 48.3-.2-.1-5.3-2.2 2-29.3 10.5-39 21.5-54.6 39.4-55.8-.6-1.8-1.2-3.4-1.9-4.9-19.2 2.1-29.9 19.2-38.2 45.3-18.7 27.4-32.6 37.3-36.1 35.4-2.4-1.3-3.3-11.7 9.8-41.7 3.5-8 6.8-14.9 10.1-20.8.1-.1.1-.2.2-.3.1-.1.1-.2.2-.4 11.6-20.8 22.4-28.8 38.6-30.9-.4-1.8-1.1-3.4-2.3-4.7-19 3-30.5 14.2-41.6 34.6-21.2 33.6-35.5 42.6-40 40.4-2.9-1.4-3.5-9.3 1.1-21.6 11.8-31.7 26.5-51.2 43.7-57.9 14.5-5.7 27.7-.6 34.3 2.5.2-.5.9-2.1 1.9-4.6-7.3-3.4-21.7-8.9-38-2.5-18.6 7.3-34.2 27.8-46.5 60.8-3 8-4.1 14.8-3.5 19.8-8-14.4-20.8-29.5-41.2-44.1-4-.4-7.9-.9-11.8-1.8 70.2 44.7 61 98 58.3 108.7z" fill="#9b3c82"/><path d="M1041.6 705.9c-53.9-80-132.7-153.3-182.2-177.6-9.4-4.6-18.6-3.5-24.2 2.1-36.9-75.8-172.7-229.6-314.9-184.3 0 0-16.9-10.5-32.6-11.6-20.3-1.4-158 16.8-158 16.8a445.05 445.05 0 0 1-45.3 52.7S131.7 877.9 384.5 936.9c132.1 30.8 303.3-11.6 371.8-49.5 0 0 24.2-30.5 23.2-80 18.4 19.8 99.2 46.8 174.1 2.2 42.9-23.3 74-56.8 87.7-76 5.8-8.3 5.9-19.3.3-27.7z" fill="#66b0f0"/><path d="M127.9 1026.2c-38.4 29.8-67.9 63.5-61 69.2s80.6.5 244.3-196.9c0 0-90.6 55.9-183.3 127.7z" fill="#5b2448"/><path d="M691.9 1137.1c-23.6-24.9-35.8-37.9-35.8-37.9s21.1 41.1 19 88.5-19 37.9-22.1 19c0 0-6.3 39-28.4-11.6 0 0 7.4 37.9-28.4-2.1-68.6-76.6-124.3-107.4-313.3-113.8-61.2-2.1-106.3-7.8-139.4-14.7l-1.5-.3c-14.4-2.9-28.6-6.8-42.5-11.5-4.3-1.5-8.3-3-11.8-4.5-24.2-10-30.7-18.4-30.7-18.4L217.5 947l25.2-13 68.5-35.3c.1-.1.2-.1.2-.1 61.6 4.7 208 49 290.2 103.7 82.2 54.8 102.2 103.2 110.6 125.3s-1.3 29.5-20.3 9.5z" fill="#f4ada2"/><g fill="#9b3c82"><path d="M572.8 1103.1c-1 .9-1.1 2.5-.2 3.5 17.8 20.1 44.6 58.6 52.1 88.8 2.5 5.8 4.9 10.4 7 14-.6-36.6-40.1-88.9-55.4-106.1-.9-1-2.4-1.1-3.5-.2zm37.4-25c-.9-1.1-2.4-1.3-3.5-.4s-1.3 2.4-.4 3.5c30.4 38.9 45.7 79.9 46.8 125.9.9 4.8 2.4 9 5.1 12.1 1.2-51.8-14.4-98-48-141.1zm26.3-20c-.9-1-2.4-1.2-3.5-.4-1.1.9-1.3 2.4-.4 3.5 9.3 11.4 16.2 24.1 24 38.6 1.7 1.9 6.5 6.9 13.5 14.3-1.6-3-3.2-6.3-4.8-9.2-9.5-17.7-17.7-33.1-28.8-46.8zM311.2 898.5c-61.6 45.8-121.6 106.9-167.8 165.8l-1.5-.3c-14.4-2.9-28.6-6.8-42.5-11.5-4.3-1.5-8.3-3-11.8-4.5 9.6-12.8 20.9-24.3 33.5-34.2 42.8-33.2 86.7-60.3 121.4-79.9 38.7-21.8 66.2-34.3 68.5-35.3.1 0 .2-.1.2-.1z"/></g><path d="M295.4 878.5c42.1-104.3 107.4-448.7-4.2-476S-44.8 635.2 7.9 979.6c0 0-14.2 12.1-4.2 36.9 10.5 26 41.6 62.7 63.2 79-13.2-16.3 151.1-148 244.3-196.9 0-.1 4.7-12.2-15.8-20.1z" fill="#66b0f0"/><path d="M416.9 1091.3c10.7-45.5 34.5-100.1 63.4-143.9l-15-9.9-42.1-27.8c-2.5 3.8-5 7.6-7.4 11.5-31.4 50.6-56.1 110.4-67.2 161.5z" fill="#5b2448"/><ellipse cx="435.7" cy="946.7" fill="#5b2448" rx="41.3" ry="59.2" transform="matrix(.3143 -.9493 .9493 .3143 -599.9031 1062.7815)"/><path d="M448.8 995.2c1.4 0 2.7 0 4.1-.1.9-1.7 1.8-3.5 2.7-5.2-10.4 1-21.7-.3-32.8-4-12.7-4.2-23.8-11-32-19.6-.8 1.6-1.6 3.2-2.3 4.7 8.6 8.5 19.9 15.3 32.8 19.6 8.8 3 18.1 4.5 27.5 4.6z" fill="#fff"/><ellipse cx="437.8" cy="940.5" fill="#fff" rx="35.4" ry="57.4" transform="matrix(.3143 -.9493 .9493 .3143 -592.7144 1060.4907)"/><path d="M431.5 960c-1.4 0-2.5-1.1-2.5-2.5 0-.3.1-.6.2-.9l7.7-20.6c.5-1.3 1.9-2 3.2-1.5l31.9 12.7c1.3.5 1.9 2 1.4 3.2-.5 1.3-2 1.9-3.2 1.4l-29.5-11.7-6.8 18.2c-.4 1-1.3 1.7-2.4 1.7z" fill="#5b2448"/><path d="M298.1 881c6.6 4.6 11.5 11.4 13.8 19.1.3 1.1 1.3 1.9 2.4 1.9.2 0 .4 0 .6-.1 1.3-.3 2.2-1.7 1.9-3-2.6-9.1-8.2-17-16-22.3 16.7-42.2 39.6-126.7 51.4-215.6 17.5-132.5.9-196.4-16.1-226.5-11.2-19.8-26.3-32.3-45.1-37.3-1.3 1.4-2.7 2.8-4 4.2 18.7 4.1 33.8 16.1 44.7 35.6 54 95.8-.2 348.9-35.7 438.2-50.6-14.3-105.4-12.4-142.8-8.1-41.3 4.7-70.9 13.2-71.2 13.2-1.2.4-2 1.7-1.6 3 .3 1.3 1.7 2.2 3 1.8 1.1-.3 103.8-29.3 196.8-8.8-40.8 1.9-88 11.3-135 27-53.7 18.1-102.4 43-138.2 70.5.3 1.9.5 3.8.8 5.7 35.5-27.9 84.6-53.2 138.9-71.3 53.7-18 107.4-27.6 151.4-27.2zm152.7-446.6c18.8 10.7 39.6 22.6 53.4 22.6 4.1 0 7.6-1.1 10.2-3.5 6.6-6.3 11.3-23.1-25.1-95.2-.6-1.2-2.1-1.7-3.4-1.1-1.2.6-1.7 2.1-1.1 3.4 32.2 63.8 32 83.8 26.1 89.4-8.6 8.2-37-8-57.7-19.8l-1.3-.8c-71.3-40.6-117.8-51.5-141-54.2-1.3 1.5-2.6 3.1-3.9 4.6 51.5 4.7 116.8 39.2 142.5 53.9zm121.5-21.3c.4.8 1.3 1.3 2.2 1.3.4 0 .8-.1 1.2-.3 1.2-.6 1.7-2.1 1.1-3.4-18.3-35.2-36-55.1-50.4-66.5-2 .6-4.1 1.2-6.1 1.8 14.2 10.5 32.8 30.1 52 67.1zM839 527.7c-.1 0-.1 0 0 0-1.4.6-2.6 1.5-3.7 2.5 0 .2.1.5.2.7 1.6 4 33.8 85.7 44 176.1.1 1.3 1.2 2.2 2.5 2.2h.3c1.4-.2 2.4-1.4 2.2-2.8-7.6-67.6-27.5-130.4-37.8-159.9 58.5 85.5 94.5 198 106.7 263 1.5-.8 3.1-1.7 4.6-2.5-13.4-69.7-53.3-191.6-118.1-278.5-.2-.3-.5-.6-.9-.8z" fill="#b0dcf7"/><path d="M551.1 27.2c-12.4-5.8-26.9-5.2-38.8 1.5-14.6-42.6-71.3-33.3-78-.4-40.3-29-87.4 16.5-70.1 52 6.3 13 15.9 36.5 10.6 59.1 19.5 8.2 57.8 58.1 57.8 58.1s63.2-92.9 97.2-96.9c53.7-6.4 47.7-60.5 21.3-73.4z" fill="#5b2448"/><path d="M490.7 45.6c-.2.3-.3.7-.3 1.1 0 1.4 1.1 2.5 2.5 2.5 1 0 1.8-.5 2.2-1.4 11.7-24 33.6-24 34.5-24 .6 0 1.2-.2 1.6-.6-6.6.3-13.1 2.1-19.1 5.4-.5-1.6-1.1-3-1.8-4.5-6.7 3.9-14.2 10.4-19.6 21.5z" fill="#9b3c82"/><path d="M584.5 227.2c1.6 11.8-4.1 24.5-16.2 32.2-31.5 20-74.7 12.3-74.7 12.3s-10.2 32.3-3.9 87.1c0 0-62.4 19.2-160.1-7.4 0 0 33.7-47.4 50.1-128.6-23.1-1.9-49.9-23.7-45.9-55 2.3-17.9 20.5-30.9 39-29 18.9 2 32.1 16.7 47.3 31.6 17.2 16.8 21.3 1.8 26.8-17.1 3.5-12.2 7.7-25.9 16.2-33.9 19.3-18.1 66.7-18.8 66.7-18.8s.6 6.1 1.8 13.8c1.6 10.2 4.5 23 8.9 27.9 7.7 8.5 14.7 6.5 15.3 12.4.5 5-4.7 11.5-7.8 14.4 4.3 34.3 32.8 30.5 36.5 58.1z" fill="#f4ada2"/><path d="M411.4 223.3c1.3-.5 1.9-2 1.4-3.3s-2-1.9-3.3-1.4c-11 4.5-22.5 4.8-29.8 4.3-.3 1.7-.7 3.3-1 5 2 .1 3.9.2 5.9.2 9.2.1 18.3-1.5 26.8-4.8z" fill="#9b3c82"/><path d="M474.3 297.7c6.4 2.6 11 3.3 14.3 2.6 1.7-18.5 4.9-28.6 4.9-28.6s-26-5.6-42.8-22.4c-5.4 3.6-8 35.3 23.6 48.4zM468 130.2l-.1-1.9c0-.6 0-1.2.1-1.7.1-1.1.3-2.3.5-3.4.5-2.2 1.3-4.4 2.3-6.4 2.1-4.3 5.2-8.1 9.1-10.9 2-1.5 4.2-2.8 6.6-3.7s4.9-1.5 7.5-1.7c2.5-.2 5 .1 7.4.7s4.6 1.7 6.5 3.3c2.5 2 2.8 5.7.8 8.1-.4.5-.8.8-1.3 1.2l-.9.6c-1.8 1.2-3.3 1.9-4.6 2.7-1.3.7-2.5 1.5-3.6 2.2l-6.1 3.8c-2.1 1.3-4.2 2.9-6.7 4.7l-3.8 2.9c-.7.5-1.4 1-2.1 1.6-.4.3-.7.5-1.1.8-.3.3-.7.5-1.1.7l-3.9.9c-2.4.6-4.9-1-5.4-3.4-.1-.5-.1-.8-.1-1.1zm24.5 15.7c5-2.3 17-7.7 27.3-16.4 1.4-1.2 3.6-1 4.8.4 3.1 3.7 7.1 10.7-.7 15.7-9.5 6.2-27.1 6.9-31.8 3.2-.7-.6-.9-1.7-.3-2.5.3-.1.5-.3.7-.4z" fill="#5b2448"/><circle cx="472" cy="197.2" fill="#e57281" opacity=".52" r="22.8"/><path d="M541 201.6c-1.4 1.6-3.1 2.9-5.1 3.7-1.9.8-3.9 1.4-6 1.6-4.2.5-8.4-.2-12.2-2-1.9-1-3.6-2.2-5.1-3.6s-2.8-3.1-3.8-5c-2.1-3.7-2.8-8-1.9-12.1.3-1.2 1.5-2 2.7-1.7.9.2 1.6 1 1.7 2v.1c.4 4.5 2.5 8.6 6 11.5 1.1 1 2.3 1.8 3.6 2.4 2.7 1.3 5.6 1.9 8.6 1.8 3 0 5.9-.7 8.5-2.2l.1-.1c1.1-.6 2.4-.3 3.1.7.6 1.1.5 2.2-.2 2.9zM399.1 195c-1 0-2-.7-2.3-1.6-10.9-29.5-35.6-26.7-36.7-26.5-1.4.2-2.6-.8-2.8-2.2s.8-2.6 2.2-2.8c.3 0 29.7-3.6 42 29.8.5 1.3-.2 2.7-1.5 3.2-.4 0-.6.1-.9.1z" fill="#9b3c82"/><path d="M757.4 945.7c-29.6 13.9-60.6 24.8-92.3 32.7l-18.3-52c30.8-7.7 60.9-17.8 90.2-30.1.9-.4 1.8-.8 2.6-1.1z" fill="#ffcf2d"/><path d="M489.7 358.8s50.6-1.1 82.1 42.1c0 0 161.2 194.3 212.3 395.4 1 4 1.3 8.2.9 12.4-1.6 16-8.9 48.9-25.8 76.8-1.5 2.4-4.6 3.2-7 1.8l-81.8-40.6c-4.9-2.8-7.9-7.9-8.1-13.5-.9-39.7-11-212.4-128.5-418.8 0 0-19.3 2-21-3.1-7.3-22-23.1-52.5-23.1-52.5z" fill="#f94f46"/><path d="M533.4 419.7c-1.4 0-2.5-1.1-2.5-2.5 0-1.2.9-2.3 2.2-2.5 13.8-2 27.1-6.9 38.9-14.3 1.1-.8 2.7-.5 3.5.7.8 1.1.5 2.7-.6 3.4-12.5 7.9-26.5 13.1-41.1 15.2h-.4z" fill="#66b0f0"/></svg></g><g transform="translate(1788.0 133.0) rotate(0.0 65.5 56.5) scale(0.9059474412171508 0.9076305220883534)"><svg width="144.6" height="124.5" viewBox="0 0 144.6 124.5"><path d="M139.9 60.3c-.7 1.8-1.5 3.7-2.5 5.5-3.3 6.4-8.2 13-14.4 19.3-1.2 1.2-2.4 2.4-3.7 3.6-5.4 5.1-11.7 10-18.7 14.4-.5.4-1.1.7-1.7 1-.9.5-1.7 1-2.6 1.5-6.8 4-13.7 7.2-20.3 9.6-1.6.6-3.2 1.2-4.9 1.7-8.5 2.7-16.5 4-23.8 4.1-2.1 0-4.1-.1-6-.3-9.3-1-16.6-4.6-20.4-10.9l-8.7-14.1-6.8-11-.4-.8C-5.4 67 12.7 37 45.4 16.9s67.7-22.7 78-5.8l.5.8 6.8 11 8.7 14.1c3.9 6.5 3.8 14.6.5 23.3z" fill="#ffcf2d"/><g fill="#9b3c82"><path d="M139.9 60.3c-.7 1.8-1.5 3.7-2.5 5.5l-13.6-22.2-.3.6c-3.7 6.3-8.5 12.4-14.3 18.2L123 85.2c-1.2 1.2-2.4 2.4-3.7 3.6l-13.9-22.7c-5.6 5.1-11.9 10-18.7 14.3l14 22.7c-.5.4-1.1.7-1.7 1-.9.5-1.7 1-2.6 1.5L82.4 83c-6.7 3.9-13.5 7.2-20.3 9.7L76 115.4l-4.9 1.7-13.8-22.7c-7.8 2.5-15.5 4.1-22.8 4.5h-.7L47.4 121c-2.1 0-4.1-.1-6-.3L28 99c-6-.2-11.2-1.3-15.7-3.2l-6.8-11c11.7 14.9 45.4 11.7 76.9-7.7C113.9 57.8 132 29.1 124 12l6.8 11c-.3 4.8-1.8 10-4.3 15.5z"/><path d="M99.7 26.6c-4-1.2-8.6-1.9-13.3-2.2l7-7.4c1-1 .9-2.6-.1-3.5-1-1-2.6-.9-3.5.1L79.7 24.3c-12.1.4-23.7 3.6-26.8 9.4-1.2 2.2-2.1 6.7 4.6 12 5.1 4 7.5 8.1 6.4 10.9-1.7 4.5-12.7 8.6-38.4 6.7-1.4-.1-2.6.9-2.7 2.3s.9 2.6 2.3 2.7c4.4.3 8.4.5 12.2.5h.1l-7.6 8c-.4.5-.7 1.1-.7 1.7 0 1.4 1.1 2.5 2.5 2.5.7 0 1.3-.3 1.8-.8l10.8-11.4v-.1c.1-.1.1-.1.1-.2 13.6-.9 21.8-4.3 24.1-10.2 2-5.1-.9-11-8-16.6-2-1.6-4.2-3.9-3.2-5.7 3-5.8 25.5-9.3 41-4.7 1.3.4 2.7-.4 3.1-1.7.5-1.2-.2-2.6-1.6-3z"/><path d="M30.7 90.2c-10.2 0-18.1-3.1-22-9.4-9.2-15 7.8-41.5 38.6-60.4s62.1-22 71.3-7.1c9.2 14.9-7.8 41.5-38.6 60.4-17.7 10.8-35.6 16.5-49.3 16.5zM96.9 8.8c-12.8 0-30.3 5.5-47 15.8C22.4 41.5 5.5 66 13 78.1s37 8.1 64.4-8.7 44.4-41.4 36.9-53.5c-2.9-4.8-9.2-7.1-17.4-7.1z"/></g></svg></g><g transform="translate(346.0 1037.0) rotate(0.0 232.0 510.5) scale(0.8918789043728976 0.8921097653253273)"><svg width="520.25" height="1144.478" viewBox="0 0 520.25 1144.478"><g fill="#fc6151"><path d="M9.991 1144.479a10 10 0 0 1-8.277-15.6c78.77-116.6 168.717-282.626 253.272-467.49 88.651-193.822 167.067-397.628 226.77-589.385a10 10 0 0 1 19.1 5.946C440.9 270.5 362.171 475.129 273.174 669.708c-85 185.835-175.519 352.882-254.888 470.368a9.99 9.99 0 0 1-8.295 4.403z"/><path d="M511.856 2.116 364.572 232.923a6.655 6.655 0 0 0 3.518 9.9l123.852 41.007a6.655 6.655 0 0 0 8.729-5.842l19.566-273.1a4.554 4.554 0 0 0-8.381-2.772z"/></g></svg></g></svg>