<svg xmlns="http://www.w3.org/2000/svg" viewBox="0 0 1200 1080" width="1200" height="1080"><g transform="translate(475.0 150.0) rotate(0.0 337.0 376.0) scale(0.9990291334089275 0.9986958519592766)"><svg width="674.655" height="752.982" viewBox="0 0 674.655 752.982"><path d="m513.787 745.904-63.228 7.078-280.728-18.616V499.065l323.332 2.697 1.36 211.325z" fill="#d1ae8b"/><path d="M444.572 745.904 136.24 723.5V498.244l308.332 2.697z" fill="#ffe3c3"/><path d="m445.072 746.441-.536-.039-308.796-22.437V497.74l309.333 2.706v245.996zm-308.333-23.406 307.333 22.331V501.437l-307.333-2.688v224.287z" fill="#ffe3c3"/><path d="m136.24 708.163-20.617 27.952 334.936 16.867-5.396-31.917z" fill="#eacaac"/><path d="m531.41 0 29.288 47.237v592.824l-135.401 10.072z" fill="#d1ae8b"/><path d="M131.979 20.172 0 638.438l425.297 11.695L531.41 0z" fill="#ffe3c3"/><path d="M138.571 94.05 47.727 527.811l373.099 20.304 73.697-467.831z" fill="#04071c"/><path d="M170.456 111.668 78.955 483.763l316.208 17.895 37.568-394.593z" fill="#fff"/><path d="m517.557 181.504-56.844 171.09 6.837 20.471 134.272 12.476 72.833-175.849-12.531-29.216z" fill="#eacaac"/><path d="m584.447 363.666-123.734-11.072 59.064-174.677 142.347 2.559z" fill="#d1ae8b"/><path d="m535.96 161.779-81.05 161.033 4.854 25.699c.448 2.411 2.506 4.232 5.022 4.445l105.419 8.938c3.192.271 6.199-1.492 7.436-4.359l71.241-165.16a8.99 8.99 0 0 0 .487-5.68l-8.895-36.784-104.513 11.867z" fill="#ae75bc"/><path d="m527.962 148.155-72.559 171.939c-1.781 4.22 1.335 8.866 6.035 8.998l100.72 2.833c2.831.08 5.41-1.567 6.453-4.12l71.426-174.772c1.751-4.285-1.505-8.933-6.258-8.933h-99.588c-2.733 0-5.195 1.603-6.23 4.056z" fill="#d1a7db"/><path d="m538.739 157.704-36.305 72.275 91.589 3.416 31.622-75.917z" fill="#fcf0e3"/><path d="m463.984 336.2 1.928 9.724 94.481 7.105-2.761-11.381z" fill="#2b2929"/><path d="m600.391 277.963 9.512 26.31 5.475 1.39 32.169-71.53-11.695-36.388c-1.238-3.853-4.977-2.76-7.54 2.359l-27.331 63.712a21.218 21.218 0 0 0-.589 14.147z" fill="#d1ae8b"/><path d="m606.272 276.056 13.006 42.291 34.736-84.213-18.163-36.388-29.147 67.926a15.578 15.578 0 0 0-.432 10.385z" fill="#eacaac"/><path d="m499.581 237.862 85.759 2.556c1.18.035 2.04 1.183 1.67 2.228l-26.71 75.467c-.739 2.087-2.851 3.482-5.172 3.407l-86.894-2.837c-1.669-.054-2.781-1.464-2.261-2.868l27.479-74.213c.859-2.321 3.33-3.824 6.13-3.74z" fill="#e1c0db"/><g fill="#403838"><path d="M568.713 294.842h-.016l-93.69-2.969c-.276-.008-.493-.239-.484-.515s.233-.51.516-.484l93.69 2.969a.499.499 0 0 1-.016.999zm9.574-27.051h-.016l-93.286-2.868a.5.5 0 0 1-.484-.515c.008-.276.231-.479.515-.485l93.286 2.868a.5.5 0 0 1-.016 1z"/><path d="M527.614 321.122a.5.5 0 0 1-.463-.688l32.958-80.942a.5.5 0 0 1 .927.377l-32.958 80.942a.5.5 0 0 1-.463.312zm-29.323-.957a.5.5 0 0 1-.474-.66l27.492-81.022a.5.5 0 0 1 .947.321l-27.492 81.022a.5.5 0 0 1-.474.339zm-72.995 330.968a1 1 0 0 1-.073-1.997l67.866-5.048a.995.995 0 0 1 1.071.923 1 1 0 0 1-.923 1.071l-67.866 5.048a.94.94 0 0 1-.075.003z"/><path d="M425.297 651.133h-.028l-289.057-7.949a1 1 0 0 1-.972-1.027c.015-.552.466-1.011 1.027-.972l289.057 7.949a1 1 0 0 1-.027 2z"/></g><path d="M478.686 602.806c-4.108.159-7.068-2.821-6.568-6.574l7.507-56.336c.392-2.939 3.628-5.316 7.182-5.316 3.54 0 6.179 2.359 5.873 5.276l-5.861 55.861c-.39 3.718-4.045 6.929-8.133 7.088zm29.689-1.152c-3.97.154-6.999-2.771-6.718-6.454l4.224-55.383c.221-2.895 3.233-5.237 6.684-5.237 3.437 0 6.126 2.325 5.986 5.198l-2.678 54.924c-.178 3.648-3.545 6.797-7.497 6.95zm25.659-.996c-3.853.15-6.938-2.729-6.841-6.35l1.462-54.559c.077-2.857 2.899-5.168 6.261-5.168 3.349 0 6.078 2.294 6.078 5.13v54.114c0 3.589-3.125 6.683-6.961 6.832z" fill="#eacaac"/></svg></g><g transform="translate(166.0 135.0) rotate(0.0 200.0 126.5) scale(0.9981733427827075 0.9979567525777262)"><svg width="400.732" height="253.518" viewBox="0 0 400.732 253.518"><clipPath id="a"><ellipse cx="303.058" cy="148.539" rx="24.024" ry="16.874" transform="matrix(.98946271 -.14478795 .14478795 .98946271 -18.313 45.444)"/></clipPath><path d="M371.867 107.79c-7.692-1.326-11.758-4.393-14.037-6.894-4.258-4.671-4.084-9.344-8.858-12.824-3.164-2.128-7.806-1.867-9.824.207-8.517-6.766-11.959-17.6-10.801-18.556.999-.822 29.589-7.455 32.376 20.415.384 3.846 1.047 9.432 11.144 17.652z" fill="#211f1f"/><path d="M242.217 24.319c-59.341-2.005-109.11 45.612-111.162 106.355-2.052 60.744 44.39 111.611 103.73 113.616 59.341 2.005 103.968-45.166 106.02-105.91.315-9.317-2.518-25.207-4.356-33.917-1.429-6.769 4.849-14.035 2.218-20.042-16.061-36.662-53.283-58.643-96.45-60.103z" fill="#2b2929" fill-rule="evenodd"/><path d="m283.203 52.564-49.971-1.688c-36.223-1.224-66.594 27.599-67.836 64.379l-1.988 58.859a7.773 7.773 0 0 0 .61 3.26c3.409 36.454 35.974 68.337 79.742 74.93 50.252 7.571 96.228-21.059 102.689-63.947.615-4.076.845-8.133.724-12.147l7.928-5.019a7.345 7.345 0 0 0 1.389-1.64c2.162-3.469 1.285-6.515-1.373-10.308l-11.661-13.754a59.475 59.475 0 0 0 2.817-16.188l.268-7.928c1.243-36.779-27.114-67.587-63.337-68.811z" fill="#f7b4a3"/><circle cx="92.981" cy="82.114" fill="#2b2929" r="82.096"/><path d="M69.629 167.205c-21.24 0-41.282-8.271-54.224-24.081-18.511-22.613-20.694-58.653-4.865-80.339 3.14-4.302 7.036-8.104 11.581-11.301l1.15 1.636c-4.365 3.071-8.105 6.719-11.116 10.844-15.326 20.997-13.173 55.939 4.798 77.893 21.197 25.893 62.094 30.931 95.127 11.718l1.006 1.729c-13.776 8.012-28.899 11.901-43.457 11.901z" fill="#2b2929"/><path d="M279.326 242.282c-54.737 0-86.859-30.329-83.92-87.286 2.148-41.619 10.532-89.162 46.966-103.811l-9.141-.309c-36.223-1.225-66.594 27.599-67.836 64.378l-1.988 58.859a7.77 7.77 0 0 0 .61 3.26c3.409 36.454 35.974 68.336 79.742 74.93 28.637 4.314 55.872-3.14 75.21-18.276-12.14 5.304-25.546 8.254-39.642 8.254z" fill="#dda094"/><path d="M400.732 111.333c-6.897-.818-16.247-3.105-24.128-10.04-13.461-11.846-11.654-27.588-22.813-33.21-5.012-2.525-11.059-4.653-25.582 3.533-2.146-4.635-16.844-16.496-18.989-21.13 31.409-16.165 53.773-5.772 58.979-.852 8.726 8.241-.463 26.364 10.806 44.28 6.106 9.705 15.321 14.746 21.727 17.42z" fill="#2b2929"/><path d="M242.065 61.885s-77.956 83.538-.824 82.816c29.954-4.582 59.851-32.186 66.758-46.942z" fill="#dda094"/><path d="M327.153 60.853c6.682 21.596-32.412 52.837-63.474 66.282-35.948 17.989-52.229 10.499-67.314 26.789-10.839 11.707-18.54 32.96-9.995 74.28l-22.934-22.525c-4.411-5.478-10.519-14.574-13.985-27.145-6.332-22.959.338-42.31 3.146-49.303.684-3.683 11.864-60.252 47.537-75.613 70.979-36.92 126.067 3.223 127.019 7.235z" fill="#2b2929" fill-rule="evenodd"/><path d="M315.359 124.224c3.136-.319 5.422-3.091 5.184-6.233-.185-2.444-1.456-3.591-3.211-4.944a5.551 5.551 0 0 0-.613-.388c-6.403-3.472-26.96.078-36.099 8.288-2.479 2.943-.042 5.744 2.788 5.732 5.836-.592 10.726-2.196 16.563-2.788 5.324-.54 10.065.875 15.388.335z" fill="#2b2929"/><ellipse cx="303.058" cy="148.539" fill="#fff" rx="24.024" ry="16.874" transform="matrix(.98946271 -.14478795 .14478795 .98946271 -18.313 45.444)"/><g clip-path="url(#a)"><circle cx="317.728" cy="147.482" fill="#2b2929" r="20.928"/></g><path d="M321.423 199.284c-7.551 0-18.44-3.535-23.859-7.9a.85.85 0 0 1 1.066-1.324c5.555 4.474 17.149 8.033 24.316 7.467a.85.85 0 0 1 .134 1.694c-.53.042-1.084.062-1.657.062z" fill="#403838"/><path d="M296.153 194.437a.85.85 0 0 1-.711-1.314l3.755-5.759a.85.85 0 0 1 1.424.928l-3.755 5.759a.85.85 0 0 1-.713.386z" fill="#403838"/><circle cx="207.172" cy="167.536" fill="#f7b4a3" r="28.576"/><path d="M200.816 186.791a.852.852 0 0 1-.44-.123c-8.546-5.183-12.738-11.974-12.461-20.184.278-8.238 4.925-14.34 13.812-18.136a.85.85 0 0 1 .668 1.564c-8.342 3.563-12.522 9.003-12.78 16.63-.259 7.656 3.55 13.764 11.644 18.673a.851.851 0 0 1-.442 1.577z" fill="#403838"/></svg></g><g transform="translate(626.0 326.0) rotate(0.0 114.5 124.5) scale(0.9992233111380674 0.9987605742271639)"><svg width="229.178" height="249.309" viewBox="0 0 229.178 249.309"><path d="M144.857 26.359c26.497-15.79 25.908 25.474 16.493 46.88 15.751-18.695 29.199 1.966-3.47 31.189 5.545-21.412-6.207-67.243-25.124-48.196-7.11-2.737-24.262-15.257-19.706-31.204 6.203-21.715 20.44-43.92 31.807 1.331z" fill="#80862c"/><path d="M87.524 76.553C65.937 31.14 111.2-6.422 128.004 35.865c.016.025 4.752 20.367 4.752 20.367s27.153-24.581 25.121 48.195c28.67-12.509 7.033 24.813-20.946 52.883-5.659.103-30.629-4.542-30.629-4.542-21.906-27.09-43.693-95.487-18.776-76.215z" fill="#5b5c1a"/><path d="m95.629 78.53.031.025c.201.139.392.282.585.42l.836.633c-8.185-20.453 8.482-21.798 17.056-.781 7.083-12.283 23.582.957 16.843 28.779a73.965 73.965 0 0 1-13.834 28.173c-9.944-1.32-13.696-3.632-13.696-3.632-21.906-27.09-26.099-66.249-7.822-53.618z" fill="#80862c"/><path d="M157.88 105.428a1 1 0 0 1-.968-1.251c4.082-15.761-1.284-44.515-11.707-50.451-3.625-2.064-7.574-.984-11.74 3.209a1.001 1.001 0 0 1-1.699-.556c-.977-6.512-2.222-13.462-4.698-20.167a1 1 0 0 1 1.877-.694c2.301 6.23 3.559 12.621 4.513 18.69 5.438-4.672 9.882-3.848 12.737-2.222 11.37 6.475 16.946 36.114 12.653 52.689a1 1 0 0 1-.967.75z" fill="#403838"/><path d="M136.327 105.803c.008.014 0-5.887 0-5.887-2.576-22.189-1.303-56.754 14.947-29.769-4.594-45.57 26.452-66.926 34.522-20.067.014.071-14.402 9.282-14.391 9.359 5.605-39.223 36.008-39.956 36.819 2.376 30.416-5.127 11.649 18.629-4.877 35.174 21.45-11.725 26.507 12.403-14.526 27.817 31.254-1.282-2.426 25.676-38.67 41.714a117.828 117.828 0 0 1-15.455-6.978c-8.791-4.83-11.453-8.344-11.453-8.344-10.613-33.183.617-63.786 13.082-45.394z" fill="#5b5c1a"/><path d="m135.364 98.385.02.035c.137.202.263.405.394.603l.55.893c-.226-22.029 15.798-17.249 16.182 5.446 11.049-8.886 21.636 9.429 5.282 32.925a73.965 73.965 0 0 1-23.094 21.254c-8.791-4.83-11.453-8.344-11.453-8.344-10.613-33.183-.346-71.204 12.119-52.813z" fill="#80862c"/><path d="M157.793 139.29a1 1 0 0 1-.82-1.571c10.686-15.353 9.335-28.004 4.963-32.083-2.402-2.241-5.609-2.056-8.798.509a.998.998 0 0 1-1.626-.762c-.217-12.805-5.292-18.729-8.679-18.729h-.039c-2.787.038-5.557 4.151-5.464 13.256a1 1 0 0 1-.99 1.01c-.526.018-1.005-.438-1.01-.99-.115-11.187 3.766-15.226 7.436-15.276 4.881-.044 10.002 6.924 10.678 18.841 3.514-2.103 7.105-1.888 9.857.679 5.719 5.336 6.02 19.306-4.686 34.688a.999.999 0 0 1-.822.429z" fill="#403838"/><path d="M208.227 61.817c30.416-5.127 23.22 14.009 6.695 30.555 21.45-11.725 14.256 14.805-26.097 32.436 12.921-17.952 18.557-64.929-5.973-54.022 1.561-6.929 2.828-13.641 2.945-20.703.014.071.026.147.037.224 14.048-22.762 32.344-15.78 22.392 11.51z" fill="#80862c"/><path d="M188.824 125.808a1 1 0 0 1-.811-1.584c9.511-13.215 14.918-41.96 7.351-51.267-2.631-3.236-6.704-3.659-12.105-1.258a.998.998 0 0 1-1.381-1.134c1.447-6.424 2.803-13.354 2.921-20.5a1 1 0 1 1 1.999.034c-.11 6.639-1.252 13.053-2.559 19.056 6.76-2.387 10.604-.01 12.678 2.54 8.254 10.152 2.723 39.799-7.279 53.696a1 1 0 0 1-.813.416z" fill="#403838"/><path d="M16.737 103.12c16.227 43.636 45.782 68.177 75.508 58.754 32.46-10.29 27.287-50.413 11.06-94.049C87.079 24.189 55.964 3.792 29.032 12.667 6.399 20.126.51 59.484 16.737 103.12z" fill="#f8a036"/><g fill="#d88830"><ellipse cx="49.228" cy="45.124" rx="28.493" ry="9.277" transform="matrix(.99960572 -.02807866 .02807866 .99960572 -1.248 1.4)"/><ellipse cx="60.22" cy="78.348" rx="32.373" ry="9.277" transform="matrix(.99960572 -.02807866 .02807866 .99960572 -2.176 1.722)"/><ellipse cx="74.808" cy="114.958" rx="28.493" ry="9.277" transform="matrix(.99960572 -.02807866 .02807866 .99960572 -3.198 2.146)"/></g><path d="M46.995 55.433c-6.767 0-13.085-.776-18.005-2.226-5.963-1.758-9.159-4.267-9.243-7.254s2.966-5.671 8.821-7.761a1 1 0 1 1 .672 1.883c-4.748 1.695-7.549 3.871-7.495 5.821.055 1.951 2.974 3.967 7.809 5.392 5.331 1.572 12.4 2.323 19.905 2.11 7.947-.223 15.508-1.533 20.745-3.595a1 1 0 0 1 .733 1.861c-5.445 2.143-13.253 3.504-21.422 3.733-.846.024-1.688.036-2.522.036zm10.257 33.234c-9.107 0-17.382-1.092-23.067-3.073a1 1 0 1 1 .658-1.888c6.045 2.107 15.618 3.191 25.609 2.917 8.553-.24 16.555-1.417 22.532-3.313 5.437-1.725 8.651-3.909 8.597-5.842-.048-1.712-2.791-3.549-7.338-4.915a1 1 0 1 1 .575-1.915c5.656 1.698 8.686 4.041 8.762 6.774.084 3.005-3.37 5.704-9.991 7.804-6.149 1.951-14.346 3.16-23.08 3.405-1.095.031-2.182.046-3.256.046z" fill="#403838"/><path d="m173.727 249.309-72.089-3.774 33.841-140.676 82.7 1.21z" fill="#e54630"/><path d="M119.083 246.448 0 240.214 16.737 103.12l176.082 2.578z" fill="#ff5e43"/></svg></g><g transform="translate(909.0 238.0) rotate(0.0 88.0 64.0) scale(0.9955032664950932 0.9972420025865963)"><svg width="176.795" height="128.354" viewBox="0 0 176.795 128.354"><path d="M30.147 15.575 167.973.059c5.542-.624 9.449 3.739 8.737 9.774l-9.992 84.686c-.773 6.552-6.123 12.553-11.962 13.37L9.295 128.252c-6.304.882-10.36-4.028-9.049-10.932l9.653-50.828 6.281-15.064-1.483-10.202 2.466-12.986c1.204-6.337 7.02-11.993 12.982-12.664z" fill="#f75c84"/><path d="m168.138 82.513-1.417 12.009c-.775 6.552-6.126 12.55-11.964 13.366l-16.321 2.285L77.65 58.047 52.773 36.713l-24.29-20.825c.558-.145 1.114-.25 1.663-.314l52.241-5.881 24.292 20.63 24.75 21.019z" fill="#f991aa"/><path d="m14.701 41.225 160.554-19.029-2.836 24.037L9.902 66.492z" fill="#403838"/><path d="M131.431 51.342 77.65 58.046 52.773 36.712l53.908-6.389z" fill="#494242"/><path d="M51.834 80.648c7.326-.949 12.181 4.764 10.86 12.81-1.331 8.103-8.421 15.536-15.852 16.552s-12.354-4.818-10.918-12.989C37.35 88.909 44.48 81.6 51.833 80.648z" fill="#ffaac5"/><path d="M36.585 109.075c-7.08 5.341-15.163 4.51-17.996-1.866-2.822-6.351.663-15.74 7.728-20.962 5.008-3.701 10.709-4.439 14.585-1.898-6.986 5.185-10.398 14.523-7.567 20.848.73 1.63 1.838 2.952 3.25 3.878z" fill="#ffdc83"/></svg></g><g transform="translate(54.0 294.0) rotate(0.0 482.5 324.5) scale(0.9987507852872107 1.000982474323797)"><svg width="966.207" height="648.363" viewBox="0 0 966.207 648.363"><path d="M858.368 20.642c-3.203 6.1-24.081 28.977-29.742 47.279-4.212 13.618 2.419 7.606 5.432 10.122 5.874 4.903 28.814-8.8 41.639-27.213 6.929-9.948 18.13-33.408 10.957-47.582-2.15-4.249-14.578-8.714-28.286 17.394z" fill="#dda094"/><path d="M931.281 130.278c-4.788 4.555-7.895 53.616-43.031 76.413-13.468-12.961-84.194-42.715-84.194-42.715 1.918-20.097 14.415-64.966 16.34-73.599 3.005-13.527 9.444-27.264 20.529-35.539 12.709-9.485 41.103-28.239 54.217-32.213 18.762-7.954 46.693-9.394 59.762-8.426 14.366 1.057 14.563 11.757 3.288 20.022a87.837 87.837 0 0 1-8.405 5.33c-.068.038-.131.088-.209.122-.522.29-1.043.579-1.571.856a.175.175 0 0 1-.094.049 223.56 223.56 0 0 1-22.022 10.281c16.624 5.433 14.887 21.616 10.903 31.31 14.355-.204 15.12 8.86 11.187 21.822-4.097 9.912-6.49 14.679-16.699 26.288z" fill="#f7b4a3"/><path d="M906.293 106.56a1 1 0 0 1-.738-1.675c8.078-8.841 23.023-22.448 31.086-23.703a1.001 1.001 0 0 1 .308 1.976c-7.5 1.167-22.331 14.773-29.917 23.075a.998.998 0 0 1-.739.326z" fill="#403838"/><path d="M947.912 40.577a223.56 223.56 0 0 1-22.022 10.281s-11.298-2.99-34.456 19.09c3.37-9.334 10.761-21.342 23.172-24.038 11.635-2.527 23.795-1.017 33.306-5.333z" fill="#dda094"/><path d="M891.439 70.949a1 1 0 0 1-.638-1.771c.979-.81 2.031-1.706 3.145-2.655 8.743-7.445 20.723-17.646 32.025-16.667.55.047.958.532.911 1.082s-.535.968-1.082.91c-10.471-.897-22.082 8.982-30.557 16.198-1.122.955-2.181 1.857-3.167 2.673a.997.997 0 0 1-.637.229zm56.939-36.355a11.75 11.75 0 0 1-2.762-.326c-4.102-.987-5.338-6.178-6.428-10.758l-.042-.178a5.373 5.373 0 0 1 .938-4.496 5.375 5.375 0 0 1 4.069-2.138c7.437-.326 14.595-.23 16.586 2.682 1.714 2.506 1.47 5.839-.652 8.917-2.337 3.391-6.86 6.296-11.709 6.297zm.868-16.031c-1.985 0-3.818.081-5.005.133a3.385 3.385 0 0 0-3.151 4.172l.043.179c1.004 4.217 2.042 8.577 4.951 9.277 4.903 1.179 10.025-1.78 12.357-5.162 1.658-2.405 1.894-4.83.647-6.653-1.1-1.608-5.787-1.946-9.843-1.946z" fill="#403838"/><path d="M179.549 559.545c-.02.17-.05.33-.07.48-15.58-2.56-52.42-14.63-91.36-30.42-24.9-10.1-52.06-21.71-69.88-42.51a81.226 81.226 0 0 1-5.74-7.5c-6.34-9.37-10.11-20.24-11.44-31.48-10.21-86.7 53.91-220.09 171.92-277.8 13.16 25.02-29.71 79.51-47.38 129-7.24 20.25-10.26 39.66-3.49 55.88 24.71 59.21 44.61 120.83 53.22 162.52 3.83 18.54 5.43 33.14 4.22 41.83z" fill="#5dace2"/><path d="M179.549 559.545c-.02.17-.05.33-.07.48-15.58-2.56-52.42-14.63-91.36-30.42-24.9-10.1-52.06-21.71-69.88-42.51-3.84-7.21 10.654-9.546 26.08-7.94 26.212 2.729 44.469-31.182 47.841-54.2 5.301-36.191-11.473-42.069 19.207-101.108 2.6-.87 9.242-39.492 14.232-24.531 15.78 47.34 39.92 156.61 49.73 218.4 3.26 20.5 4.94 35.78 4.22 41.83z" fill="#3591ba"/><path d="M580.659 578.525c.06 5.87-1.97 11.99-6.71 15.83-34.01 27.58-90.58 42.63-151.32 49.43-102.37 11.47-216.58-.48-254.61-15.3-21.64-8.41-40.26-19.69-52.78-30.11-53.31-54.86-25.09-122.43.79-145.21-.71-4.57-13.51-35.03-12.97-83.311.54-48.37 15.34-160.8 20.42-166.42.54-.37 16.6-15.72 37.88-27.2 37.72-20.35 104.1-43.58 173.55-46.93 96.84-4.66 150.79 16.16 218.72 61.61.01 0 6.88 8.38 7.26 41.03.34 28.23-14.32 95.52-21.74 143.19-1.16 7.46-2.14 13.22-2.87 16.7 3.51 39.67 40.33 66.36 43.38 107.82.05.61.09 1.33.13 2.15.56 12.42-1.95 26.19-9.27 42.02v.01c.64 2.06 3.62 10.8 4.43 13.02.12.34 5.69 19.07 5.71 21.67z" fill="#5dace2"/><path d="M580.659 578.525c.06 5.87-1.97 11.99-6.71 15.83-34.01 27.58-90.58 42.63-151.32 49.43 23.047-5.404 110.064-12.595 101.703-51.836-.982-4.609 2.891-10.388 7.227-16.914 11.96-17.998-16.34-41.206-29.79-66.06-10.116-18.693-15.4-34.06-15.4-34.06s55.92 5.15 93.29 24.74c.05.61.09 1.33.13 2.15.83 16.63.85 74.24.87 76.72z" fill="#3591ba"/><path d="M914.559 190.085c-2.059 11.018-5.422 25.867-8.061 36.358-1.972 7.838-4.397 10.901-4.397 10.901s-.83 3.086-.882 5.181c-2.21 87.13-34.54 193.12-59.26 226.08-14.01 15.76-36.52 32.04-39.97 37.85-17.84 30.08-55.93 74.09-136.63 77.7-97.75 4.38-161.68-77.29-175.99-104.1-14.56 15.97-50.98-1.66-66.84-65.2-4.7-18.79-7.59-41.6-7.59-68.729 0-127.29 57.87-172.04 92.23-172.04 13.56 0 12.92-1.5 34.71 9.26 71.12 43.45 111.44 109.23 128.85 156.05.1-.43.21-.87.32-1.32 2.33-9.19 6.98-20.51 13.24-32.35 5.68-10.77 12.67-21.96 20.4-32.38.08-.1.15-.2.22-.29l.01-.01c1.12-1.5 2.25-2.98 3.39-4.44 23.65-30.189 59.001-53.571 75.001-62.421 3.279-7.963 7.862-25.507 10.286-33.991 1.228-4.296 4.415-7.434 7.294-7.979 12.96-2.455 87.7 4.662 101.69 7.762 8.23 1.82 13.52 9.83 11.98 18.11z" fill="#5dace2"/><path d="M841.962 468.61c-15.767 22.046-30.415 31.435-38.865 36.341 9.277-20.394 19.771-54.255 22.982-67.15-3.212 27.486-1.881 40.614 15.882 30.808zM704.689 273.345c-12.76 19.15-25.855 62.351-21.724 103-2.444-11.632-6.974-25.401-12.236-36.95 0-1.167 2.984-10.312 4.994-15.336 2.32-5.797 5.212-11.991 8.566-18.334 5.68-10.77 12.67-21.96 20.4-32.38z" fill="#3591ba"/><path d="M704.889 273.055c.01-.01.02-.01.03-.01l-.01.01zm.03-.01c.43-.2.42-.1 0 0z" fill="#ee2667"/><path d="M580.659 566.672a.999.999 0 0 1-.479-.123c-40.589-22.211-72.061-52.18-93.542-89.072-17.583-30.2-23.083-56.12-24.631-65.863a1 1 0 0 1 1.976-.314c1.531 9.631 6.97 35.261 24.384 65.17 21.294 36.574 52.508 66.29 92.773 88.324a1 1 0 0 1-.481 1.877z" fill="#403838"/><path d="M184.367 165.092s-22.203 100.615 97.079 110.41c148.217 12.171 192.303-110.087 192.303-110.087l-227.293-29.443z" fill="#3591ba"/><path d="M480.56 151.007s3.411-53.642-50.437-46.321c-55.921 7.603-101.881 9.273-131.461-2.179-18.582-7.194-46.305-23.085-65.496-6.565-15.628 13.453-9.701 35.81-9.701 35.81s-11.383 4.399-17.84 17.84c-19.635 40.874 29.169 84.264 73.149 92.27 159.904 29.111 201.787-90.856 201.787-90.856z" fill="#5dace2"/><path d="M229.732 135.972c-1.884 3.16 15.458 49.683 78.898 49.842 68.476.172 137.602-55.036 135.88-58.797-1.213-2.652-81.645 44.246-142.747 39.889-42.223-3.011-69.483-35.21-72.031-30.934z" fill="#3591ba"/><path d="M105.768 411.22a1 1 0 0 1-.978-.797c-4.028-19.4-5.45-59.527 2.514-81.333a1 1 0 1 1 1.878.687c-7.838 21.462-6.415 61.068-2.434 80.241a1 1 0 0 1-.98 1.203zM85.04 531.381a1 1 0 0 1-.999-.97c-1-33.764 15.538-64.099 31.327-77.996a1 1 0 0 1 1.321 1.501c-15.449 13.599-31.629 43.318-30.649 76.436a1 1 0 0 1-.97 1.029zm153.323-305.234a.994.994 0 0 1-.552-.167c-22.885-15.176-44.302-41.509-35.779-69.903a1.001 1.001 0 0 1 1.915.576c-8.208 27.346 12.682 52.882 34.969 67.661a1 1 0 0 1-.553 1.833z" fill="#403838"/><rect fill="#3591ba" height="31.206" rx="5.957" transform="matrix(.97948039 .20153951 -.20153951 .97948039 54.262 -158.584)" width="11.914" x="799.934" y="171.572"/><rect fill="#3591ba" height="31.942" rx="5.957" transform="matrix(.97948039 .20153951 -.20153951 .97948039 55.053 -163.713)" width="11.914" x="825.52" y="172.523"/><rect fill="#3591ba" height="34.481" rx="5.957" transform="matrix(.97948039 .20153951 -.20153951 .97948039 56.517 -169.597)" width="11.914" x="855.143" y="175.497"/><rect fill="#3591ba" height="34.481" rx="5.957" transform="matrix(.97948039 .20153951 -.20153951 .97948039 58.619 -175.468)" width="11.914" x="885.022" y="182.888"/><g fill="#403838"><path d="M803.951 203.581a6.99 6.99 0 0 1-1.406-.144 6.913 6.913 0 0 1-4.402-2.991 6.903 6.903 0 0 1-1.01-5.225 1 1 0 0 1 1.959.403 4.924 4.924 0 0 0 .722 3.722 4.92 4.92 0 0 0 3.135 2.132 4.917 4.917 0 0 0 3.722-.722 4.922 4.922 0 0 0 2.133-3.135l3.711-19.709a1 1 0 0 1 1.966.37l-3.715 19.726a6.91 6.91 0 0 1-2.995 4.418 6.924 6.924 0 0 1-3.819 1.154zm25.51 1.68c-.463 0-.933-.047-1.404-.144a6.91 6.91 0 0 1-4.402-2.991 6.905 6.905 0 0 1-1.01-5.226l.643-3.124a1 1 0 0 1 1.959.403l-.643 3.124a4.919 4.919 0 0 0 .722 3.722 4.92 4.92 0 0 0 3.135 2.132 4.965 4.965 0 0 0 5.854-3.856l3.248-15.784a1 1 0 0 1 1.959.403l-3.248 15.784c-.676 3.286-3.581 5.556-6.813 5.556zm24.8 3.341a.997.997 0 0 1-.816-.421c-3.74-5.273 2.424-25.681 3.139-27.991.349-1.72 1.411-3.283 2.967-4.308a6.917 6.917 0 0 1 5.225-1.01 6.94 6.94 0 0 1 4.139 2.619 1 1 0 1 1-1.596 1.206 4.94 4.94 0 0 0-2.946-1.866 4.918 4.918 0 0 0-3.722.722 4.92 4.92 0 0 0-2.133 3.135c-1.886 6.109-6.13 22.548-3.443 26.336a1 1 0 0 1-.815 1.579zm28.776 1.572a1 1 0 0 1-.981-1.202l4.382-21.297a6.91 6.91 0 0 1 2.991-4.402 6.913 6.913 0 0 1 5.225-1.01c3.757.773 6.185 4.459 5.412 8.217a1 1 0 0 1-1.959-.403 4.962 4.962 0 0 0-3.856-5.854 4.913 4.913 0 0 0-3.722.722 4.92 4.92 0 0 0-2.133 3.135l-4.382 21.297a1 1 0 0 1-.979.798zM683.542 381.875a1 1 0 0 1-.994-.901c-1.836-18.544-10.802-40.722-17.923-54.08a1 1 0 0 1 1.765-.941c7.206 13.519 16.283 35.988 18.148 54.823a1 1 0 0 1-.996 1.099z"/></g></svg></g></svg>