<svg xmlns="http://www.w3.org/2000/svg" viewBox="0 0 1920 1080" width="1920" height="1080"><g transform="translate(677.0 375.0) rotate(0.0 585.0 329.5) scale(1.0005875244694962 1.0008307350714478)"><svg width="1169.313" height="658.453" viewBox="0 0 1169.313 658.453"><path d="M415.755 328.132c-72.693-4.24-159.325 71.944-167.282 208.267-4.263 73.125 43.386 118.438 102.951 121.912 72.693 4.238 153.916-87.018 160.311-196.704 3.909-66.843-23.285-129.235-95.98-133.475zm-54.09 246.509c-25.659-1.494-29.036-32.34-27.825-53.102 2.479-42.517 31.42-109.971 70.523-107.69 18.693 1.089 30.604 17.597 29.065 43.989-3.629 62.301-35.601 118.912-71.763 116.803z" fill="#ae84d3"/><path d="M373.001 427.431c4.055-13.133 31.576-40.666 49.213-39.774s28.595 35.891 11.177 60.889c-3.631-31.588-23.01-34.317-30.409-34.751-13.509-.79-29.981 13.636-29.981 13.636z" fill="#9574b7"/><path d="M1119.321 339.296H973.937c-12.014 0-22.828-1.438-30.14 16.768-6.786 16.89-53.003 194.313-71.381 258.886-8.639 30.35-2.137 37.453 16.655 37.453h155.773c16.426 0 18.157-5.388 21.902-18.512 4.641-16.26 10.301-37.121 13.051-47.406 2.829-10.574-.103-16.514-18.649-16.514-22.997 0-74.888.155-81.458.155 1.583-6.246 5.012-18.59 8.349-30.745h84.182c16.426 0 18.158-5.388 21.902-18.51 4.639-16.262 11.529-41.755 14.272-52.04 2.829-10.574-.101-16.516-18.649-16.516-2.067 0-75.659.149-78.866.153 2.309-8.838 4.618-17.645 6.838-26.106h84.063c16.426 0 18.157-5.388 21.902-18.512 4.639-16.26 11.529-41.755 14.272-52.04 2.844-10.574-.086-16.514-18.634-16.514z" fill="#f8a036"/><path d="M1017.727 426.362c-17.731.909-33.67.947-44.268 2.588 16.017 8.83 37.469 23.365 37.469 23.365 5.927-22.633 6.799-25.953 6.799-25.953zm-29.536 112.41-7.273 26.721s-47.544-22.819-42.561-32.568c1.792 8.106 49.834 5.847 49.834 5.847z" fill="#dd8b31"/><path d="M113.449 574.714c-25.657-1.497-29.036-32.342-27.825-53.102 2.481-42.517 31.423-109.971 70.523-107.692a30.392 30.392 0 0 1 26.601 20.399c3.018 8.83 6.788 9.235 22.865 4.702 13.353-3.757 26.446-7.451 39.575-11.668 12.449-3.988 17.377-6.46 12.474-25.239-10.648-40.777-40.074-70.991-90.114-73.91C94.855 323.965 8.223 400.147.266 536.472c-4.265 73.123 43.283 121.91 102.949 121.91 48.463 0 88.086-27.252 119.328-74.721 8.847-13.443 8.255-17.744-5.331-22.038-14.296-4.527-28.499-8.637-43.067-13.2-12.952-4.057-13.567-5.084-21.713 5.071-9.739 12.144-23.315 22.133-38.983 21.22z" fill="#5daae0"/><path d="M124.785 427.504c4.057-13.135 31.578-40.668 49.213-39.776s20.664 30.564 9.812 49.267a31.406 31.406 0 0 0-29.044-23.13c-13.509-.787-29.981 13.639-29.981 13.639z" fill="#3f96c7"/><path d="M899.59 338.878h-6.049a26.472 26.472 0 0 0-3.763-.273H862.52c-13.189 0-22.727-.573-33.412 14.063-13.828 18.949-72.972 95.919-143.453 193.975l-37.056-195.249-.015-.078v-.025c-1.845-9-10.354-12.413-18.959-12.413h-36.441c-8.761 0-22.574-.42-27.915 16.974-6.769 22.001-50.885 183.72-70.275 254.707-10.297 37.694-3.644 41.426 20.586 41.426h34.12c19.438 0 23.678-9.827 27.376-22.555 4.219-14.516 20.796-76.076 27.791-102.451 0 0 10.043 66.01 15.826 100.866 1.614 9.726 2.886 24.557 19.018 24.557h55.425c15.574 0 18.067-7.411 30.495-23.495 5.577-7.216 27.928-38.536 54.884-76.639-6.471 22.211-12.258 42.461-16.56 58.215-10.297 37.694-3.644 41.426 20.586 41.426h34.122c19.438 0 23.678-9.825 27.376-22.555 4.884-16.806 69.744-252.893 72.873-264.939 4.508-17.393-7.827-25.537-19.322-25.537z" fill="#ff5e43"/><path d="M826.34 487.249c-2.938 61.691-48.018 110.278-58.095 107.738l12.262-42.725s28.931-42.88 45.833-65.013zm-221.645 41.864-14.558 52.743c-15.322-26.559-14.272-108.324 2.651-128.032 8.003 30.728 11.907 75.289 11.907 75.289z" fill="#e54630"/><path d="M967.137.76H822.094c-11.986 0-22.774-1.434-30.069 16.729-6.77 16.85-52.879 193.858-71.214 258.279-8.619 30.279-2.132 37.365 16.616 37.365h155.408c16.387 0 18.115-5.375 21.851-18.469 4.63-16.222 10.277-37.034 13.02-47.295 2.823-10.549-.103-16.475-18.605-16.475-22.944 0-74.713.155-81.267.155 1.579-6.232 5-18.546 8.33-30.673h83.985c16.387 0 18.115-5.375 21.851-18.467 4.628-16.224 11.502-41.658 14.239-51.918 2.823-10.549-.1-16.477-18.605-16.477-2.062 0-75.481.149-78.681.153 2.303-8.818 4.607-17.604 6.822-26.045h83.866c16.387 0 18.115-5.375 21.851-18.469 4.628-16.222 11.502-41.658 14.239-51.918C988.565 6.686 985.642.76 967.137.76z" fill="#5da7dd"/><path d="M865.781 87.622c-17.69.907-33.592.944-44.164 2.582 15.979 8.809 37.382 23.31 37.382 23.31 5.912-22.579 6.782-25.892 6.782-25.892zm-29.467 112.147-7.256 26.658s-47.433-22.766-42.462-32.492c1.789 8.088 49.718 5.834 49.718 5.834z" fill="#3f93c4"/><path d="M965.787 261.741c-10.924 37.421-13.075 51.392 11.098 51.392h155.411c16.387 0 18.115-5.375 21.851-18.469 4.628-16.222 11.502-41.658 14.239-51.918 2.823-10.549-.1-16.475-18.605-16.475-22.944 0-73.829.182-80.385.182 2.594-10.242 8.943-32.289 12.895-47.548 12.83-49.541 38.598-141.812 41.72-153.832 4.506-17.346-8.929-24.315-20.4-24.315h-42.056c-8.74 0-21.945-.178-28.499 16.752s-67.269 244.231-67.269 244.231z" fill="#ae75bc"/><path d="m1081.031 183.719-10.939 42.734s-32.846 2.469-46.775 6.734c26.493-16.928 41.945-28.654 57.714-49.468z" fill="#9574b7"/><path d="M756.201.867h-53.459c-9.632 0-16.387-.756-22.948 12.354-6.06 12.112-29.898 66.911-57.048 129.269-7.618-59.615-14.93-111.695-17.246-128.216C603.253-1.747 589.768.06 581.028.06h-39.214c-13.169 0-16.446 3.468-20.986 13.161-5.911 12.618-32.735 70.102-61.982 134.672-7.609-60.346-14.819-113.274-17.303-130.092C438.89-.163 422.425.867 413.693.867h-38.475c-11.471 0-20.297 5.616-18.253 23.421 1.91 16.618 27.025 220.129 32.553 266.341 1.313 10.975 5.346 21.746 17.039 21.746 5.987 0 51.721.756 53.348.756 19.392 0 21.225-10.763 27.312-22.502 6.552-12.629 29.041-64.076 52.483-118.5 6.14 49.893 12.206 97.749 14.367 117.38s9.502 23.718 19.673 23.622c9.381-.088 29.073 0 51.156 0 19.392 0 21.222-10.763 27.312-22.502C666.866 262.376 760.931 39.6 767.954 24.288 776.527 5.593 767.661.867 756.201.867z" fill="#f8a036"/><path d="m459.016 146.575-21.359 45.475c-8.74-35.505 5.735-86.649 13.785-102.199 4.715 35.526 7.574 56.724 7.574 56.724zm163.61-4.951 21.966-50.423c6.81 33.904-6.454 88.868-14.482 104.429-4.772-35.52-7.484-54.006-7.484-54.006zm-82.942 29.437 22.081-51.478c6.766 33.922-7.096 93.276-15.146 108.826-4.841-38.238-6.935-57.348-6.935-57.348z" fill="#dd8b31"/><g fill="#403838"><path d="M123.796 427.067a.85.85 0 0 1-.706-1.322l.156-.246c2.443-3.864 7.659-11.48 15.146-19.079 11.179-11.344 22.674-17.947 34.166-19.626a.85.85 0 0 1 .246 1.682c-11.118 1.624-22.288 8.063-33.201 19.137-7.376 7.485-12.514 14.988-14.92 18.794l-.18.28a.844.844 0 0 1-.707.38zm247.958.379a.85.85 0 0 1-.759-1.231c.169-.338 19.879-34.316 49.753-39.418a.851.851 0 0 1 .287 1.676c-29.103 4.97-48.354 38.172-48.521 38.503a.847.847 0 0 1-.76.47zm232.94 101.031a.852.852 0 0 1-.839-.718l-12.014-76.273a.85.85 0 0 1 .708-.972.86.86 0 0 1 .972.708l12.014 76.273a.85.85 0 0 1-.841.982zm175.821 24.642a.85.85 0 0 1-.693-1.34l45.825-65.02a.85.85 0 1 1 1.389.98l-45.825 65.02a.852.852 0 0 1-.696.36zm206.336-13.315-.034-.001-40.366-1.563a11.348 11.348 0 0 1-8.8-4.71 11.35 11.35 0 0 1-1.728-9.83l15.814-55.275a.85.85 0 0 1 1.635.468l-15.814 55.275a9.65 9.65 0 0 0 1.47 8.365 9.653 9.653 0 0 0 7.489 4.008l40.366 1.563a.85.85 0 0 1-.032 1.7zM973.458 429.8a.85.85 0 0 1-.159-1.685c2.13-.408 25.893-3.142 44.452-2.603a.85.85 0 0 1 .825.874c-.015.469-.397.863-.874.825-18.434-.532-41.978 2.169-44.083 2.573a.814.814 0 0 1-.161.016zM834.904 201.133l-.034-.001-40.366-1.563a11.348 11.348 0 0 1-8.8-4.71 11.35 11.35 0 0 1-1.728-9.83l15.814-55.275a.85.85 0 0 1 1.635.468l-15.814 55.275a9.65 9.65 0 0 0 1.47 8.365 9.653 9.653 0 0 0 7.489 4.008l40.366 1.563a.85.85 0 0 1-.032 1.7zM821.512 91.129a.85.85 0 0 1-.159-1.685c2.13-.407 25.892-3.143 44.452-2.603a.85.85 0 0 1 .825.874.84.84 0 0 1-.874.825c-18.437-.532-41.977 2.17-44.083 2.573a.821.821 0 0 1-.161.016zm201.805 142.908a.85.85 0 0 1-.346-1.627c4.893-2.182 17.326-5.977 45.642-6.875.515-.021.862.354.877.823s-.354.861-.822.876c-28.025.889-40.226 4.597-45.003 6.728a.83.83 0 0 1-.348.075zm-393.374-36.485a.85.85 0 0 1-.842-.738l-7.318-55.077a.851.851 0 0 1 1.685-.224l7.318 55.077a.851.851 0 0 1-.843.962zm-90.242-24.573a.849.849 0 0 1-.786-1.173l22.917-55.702a.85.85 0 1 1 1.572.646l-22.917 55.702a.848.848 0 0 1-.786.527zm-102.894 23.309a.848.848 0 0 1-.773-1.201l22.208-48.864a.85.85 0 1 1 1.547.703l-22.208 48.864a.85.85 0 0 1-.774.498z"/></g></svg></g><g transform="translate(108.0 27.0) rotate(0.0 596.5 501.5) scale(0.9981760069612945 0.9984957855115574)"><svg width="1195.18" height="1004.511" viewBox="0 0 1195.18 1004.511"><clipPath id="a"><ellipse cx="936.052" cy="107.255" rx="11.575" ry="20.926" transform="matrix(.3159 -.9488 .9488 .3159 538.586 961.4908)"/></clipPath><clipPath id="b"><ellipse cx="871.511" cy="85.766" rx="11.575" ry="20.926" transform="matrix(.3159 -.9488 .9488 .3159 514.8224 885.5536)"/></clipPath><path d="M333.521 945.939a31.712 31.712 0 0 0-1.343 2.879c-1.362 4.07-2.267 8.583-2.464 12.845-.438 9.468 4.873 17.264 12.124 22.192 19.215 13.058 53.212 20.8 78.855 20.499 62.418-.732 124.702-1.656 187.12-2.388 12.047-.141 21.667-11.106 20.815-24.358l-5.297-82.474a32.297 32.297 0 0 0-22.017-28.57s-83.144-32.139-93.026-14.984c-42.236 49.769-79.888 65.549-107.372 70.314-24.315 4.216-55.963 2.461-67.395 24.045z" fill="#ee2667"/><path d="m618.946 844.134 5.124 62.512s-12.062-22.157-25.615-26.52c-4.994-1.608-18.344-5.45-21.801-6.608-12.676-4.245-6.455-18.148 3.265-14.622 8.429 3.057 22.871-7.332 25.368-16.143 1.075-3.792 5.116-5.906 8.864-4.685a6.979 6.979 0 0 1 4.795 6.066z" fill="#f8a036"/><path d="M554.177 883.342c-8.778-8-32.416-10.798-48.465-19.934-41.723 48.601-77.586 53.768-104.795 58.486-9.711 1.684-20.59 2.418-30.885 4.064-.58 3.842.011 9.21 6.454 10.665 54.009 12.201 90.955-16.123 115.607-19.902 22.487-3.448 43.683-7.749 51.545-9.393a8.638 8.638 0 0 0 5.17-3.307l6.655-12.549c1.43-2.694.968-6.075-1.286-8.13z" fill="#ffadc7"/><path d="M510.782 824.975c-1.449 15.833-14.882 37.015-19.123 41.331-25.678 26.127-48.665 41.154-68.483 49.133-7.938 3.196-15.368 5.261-22.259 6.456-9.853 1.708 12.171 9.586 31.379 4.72 7.585-1.922 15.347-4.396 23.035-7.582 56.61-23.462 82.977-64.605 86.754-81.31 3.348-14.805-29.703-30.228-31.303-12.748z" fill="#c7d94f"/><path d="M424.729 997.559c-.3-6.92-10.669-13.426-18.835-8.094-4.439 2.898-18.566 1.146-23.757-4.126-18.125-18.409-37.87-32.159-49.944-36.515-1.691 4.151-2.483 8.503-2.679 12.764-.438 9.468 5.005 17.405 12.257 22.333 19.215 13.058 53.317 20.882 78.96 20.581l3.957-.046c.16-2.111.149-4.411.041-6.897z" fill="#f9e7d7"/><path d="M420.73 1004.503c62.417-.732 132.377-1.465 194.794-2.197 12.047-.141 21.497-11.446 20.645-24.698l-2.025-31.535c-.345-5.378-5.545-9.093-10.737-7.652-7.215 2.002-15.368 3.979-18.748 5.247-9.272 3.477-4.636-17.384-12.169-22.02s-56.789 22.6-61.425 25.711-1.738-18.178-11.01-15.99c-9.272 2.187-53.892 24.469-67.8 31.423s-40.508 22.89-48.195 27.839c-4 2.576-7.044 6.855-9.36 11.826 9.029 1.427 17.95 2.14 26.03 2.046z" fill="#f9e7d7"/><path d="M536.703 1003.142c12.318-13.859 34.605-40.512 24.495-45.567-10.271-5.135-81.819 31.573-104.515 46.506l80.02-.939z" fill="#f8a036"/><path d="M625.52 929.22c-4.215 2.432-7.888 4.42-9.996 5.269-7.676 3.093-4.879-34.883-17.529-28.533-24.465 12.28-41.173 20.646-59.173 30.667-8.273 4.606 13.597-27.27-7.178-19.033-21.141 8.382-115.251 57.146-99.348 57.257 7.391.052 69.514-31.243 84.571-38.224 10.431-4.836-.869 25.965 11.3 19.112s33.9-17.545 53.892-24.368 13.78 25.37 22.767 21.369c5.856-2.607 13.171-9.784 21.286-14.304l-.592-9.212z" fill="#77c3ed"/><path d="m565.432 865.206-1.81 6.57c-1.456 5.282-6.917 8.384-12.2 6.929l-31.151-8.583c-5.282-1.455-8.384-6.917-6.929-12.2l1.81-6.57c1.455-5.282 6.917-8.384 12.2-6.929l31.151 8.583c5.282 1.456 8.384 6.918 6.929 12.2z" fill="#ee2667"/><circle cx="527.643" cy="858.329" fill="#77c3ed" r="8.062"/><g fill="#403838"><circle cx="518.95" cy="889.911" r="4.963"/><circle cx="488.383" cy="910.202" r="4.963"/><circle cx="456.682" cy="926.862" r="4.963"/><path d="M518.951 890.761a.847.847 0 0 1-.635-.285c-10.576-11.892-22.067-16.433-29.295-16.718-2.67-.106-4.809.365-5.736 1.256a.85.85 0 1 1-1.178-1.226c1.272-1.222 3.821-1.852 6.981-1.728 3.677.145 16.742 1.819 30.497 17.287a.85.85 0 0 1-.634 1.414zm-30.569 20.291a.85.85 0 0 1-.802-.567c-3.604-10.205-15.246-17.38-21.916-18.439-1.772-.282-2.693-.009-2.938.311a.85.85 0 1 1-1.349-1.035c.752-.978 2.33-1.307 4.555-.955 7.261 1.153 19.381 8.589 23.253 19.552a.85.85 0 0 1-.803 1.133zm-31.701 16.661a.85.85 0 0 1-.848-.809c-.479-9.804-6.395-17.008-11.688-19.552-2.021-.971-3.304-.906-3.832-.525a.851.851 0 0 1-.997-1.378c1.234-.892 3.21-.76 5.565.371 5.731 2.755 12.135 10.503 12.647 21.001a.85.85 0 0 1-.808.891l-.039.001zm69.093-68.054a.848.848 0 0 1-.652-.305c-6.29-7.535-15.354-9.72-21.109-8.561-2.196.442-3.184 1.266-3.375 1.89a.85.85 0 0 1-1.624-.5c.447-1.456 2.104-2.541 4.664-3.057 6.24-1.256 16.014 1.069 22.75 9.138a.85.85 0 0 1-.654 1.395z"/><circle cx="527.643" cy="858.329" r="4.622"/></g><path d="M794.9 114.709c-23.497 32.013-33.954 63.527-19.977 104.518 15.15 44.431 217.738 40.928 221.559 10.396s2.169-24.76 5.364-53.694-143.438-114.31-143.438-114.31-42.529 24.509-63.508 53.09z" fill="#2b2929"/><path d="M789.399 259.258c18.567 34.153-20.317 106.759-87.893 143.496s-142.82 25.692-161.387-8.461 14.389-99.309 84.566-130.795c40.026-17.959 66.567-29.02 103.763-40.625 45.309-14.136 47.894 12.368 60.951 36.385z" fill="#ff5e43"/><path d="M608.457 273.638c-40.576 85.477-6.826 107.853-46.709 114.738-39.883 6.884-99.973-59.61-114.78-135.207-10.474-53.475 36.801-110.117 75.916-85.72 35.76 22.302 92.871 90.814 85.573 106.189z" fill="#ff5e43"/><path d="M601.11 280.043c42.47 47.363 114.039 124.107 77.486 141.483-47.594 22.626-133.384 17.793-176.259-11.638-39.816-27.331-68.775-56.005-55.544-194.866 3.84-40.289 111.848 17.659 154.317 65.021z" fill="#ff5e43"/><path d="M645.638 307.212c-4.427 69.551 100.304 132.829 233.924 141.335s245.529-40.982 249.957-110.533S1029.3 191.101 895.595 196.679c-154.04 6.426-245.529 40.982-249.957 110.533z" fill="#ff5e43"/><path d="M707.272 342.328c2.456-2.501 4.846-4.522 7.074-5.666l-.159-.563c-4.566-15.765-4.298-17.919-4.52-19.088-19.284 11.099-27.261 32.142-31.598 47.91-6.002 21.822-51.642 70.795-147.267 59.035 49.159 17.438 110.494 15.303 147.795-2.43 5.747-2.731 28.675-79.198 28.675-79.198zm-98.817-70.593c-6.776 6.335-15.349 18.377-15.222 29.562-1.005-10.658-12.731-14.816-6.234-22.121 6.538-7.351 12.367-16.792 13.845-29.571 5.46 8.96 10.487 19.718 7.611 22.13z" fill="#e54630"/><ellipse cx="914.053" cy="466.181" fill="#ff5e43" rx="93.359" ry="124.191"/><path d="M642.558 489.647c-10.053-13.58 1.842-89.68 71.788-152.985 11.681-10.572 135.379-42.429 179.536 7.733s.529 227.535-20.888 226.897c-21.417-.639-42.041-64.552-130.882-77.809s-89.643 9.552-99.554-3.836z" fill="#ff5e43"/><circle cx="1031.997" cy="352.776" fill="#ff5e43" r="91.261"/><path d="M1088.939 305.714c16.547-6.455 17.562-16.85 18.189-28.818 10.621 14.003 20.641 26.796 22.416 42.218-16.162-6.384-34.858-9.396-55.509-7.132a330.222 330.222 0 0 1 14.904-6.268zM930.94 380.261c.584-20.602-3.687-35.929 11.236-43.734 0 0-3.544 34.538 14.431 52.833-18.45 25.253-21.486 33.453-6.975 63.718.824 1.719 1.666 3.4 2.52 5.056-6.93-2.775-24.662 31.042-34.478 22.971-27.936-22.968 12.217-63.842 13.266-100.844z" fill="#e54630"/><path d="M642.559 490.497a.85.85 0 0 1-.675-.332c-7.036-9.14-2.743-35.764 5.135-57.34 8.714-23.868 27.367-60.034 66.747-96.785a.851.851 0 0 1 1.16 1.244c-39.135 36.521-57.66 72.431-66.311 96.125-7.529 20.623-11.975 47.159-5.384 55.72a.85.85 0 0 1-.672 1.368z" fill="#403838"/><path d="M714.187 336.95a.85.85 0 0 1-.816-.614c-4.639-16.015-4.573-19.091-4.551-19.389a.86.86 0 0 1 .912-.783.85.85 0 0 1 .784.895c-.004.159-.016 3.256 4.487 18.804a.85.85 0 0 1-.816 1.087zm242.419 53.261a.845.845 0 0 1-.491-.157c-3.956-2.812-8.619-11.712-11.88-22.677-3.569-12-4.622-23.312-2.889-31.036a.85.85 0 1 1 1.659.372c-3.734 16.645 6.564 46.604 14.095 51.955a.848.848 0 0 1-.494 1.543z" fill="#403838"/><path d="m795.886 660.285-239.934-1.249-125.034 155.257c-1.551 4.42-17.35 47.089-62.613 60.538-33.888 10.069-71.152-.144-96.405-26.284l-17.85-8.347c-6.425-4.252-19.699-14.302-28.431-32.346-2.721-5.623-12.451-26.504-6.26-51.475 9.198-37.099 45.651-51.427 49.257-52.776l130.985-237.517 339.307 27.587z" fill="#f9e7d7"/><path d="m531.554 593.286 74.541 71.422-49.912.118-22.236 26.945zM328.43 874.831c-.503-13.093-36.127-42.265-51.991-66.583-8.796-13.483-12.221-24.496-24.24-28.413-7.413-2.416-12.036-.159-17.592-3.518-9.338-5.646-10.716-20.75-10.159-33.772-5.204 6.507-22.416 29.669-16.815 56.055 4.747 22.363 23.302 34.895 44.566 49.257 20.813 14.057 42.333 20.976 53.949 24.629 9.014 2.834 22.298 5.44 22.304 5.193.017-.758.021-1.73-.022-2.848zm36.937-326.038c-11.61 3.999-16.772 9.818-19.345 14.074-13.529 22.386 14.372 51.586 22.283 104.379 3.104 20.716 2.088 38.108.827 49.257 9.308 4.846 30.241 25.878 43.295 59.813 3.617 9.404 8.062 22.721 19.765 30.493l45.149-70.018-111.974-187.998z" fill="#eacaac"/><path clip-rule="evenodd" d="M545.741 849.734c-24.834 36.184-67.774 33.21-101.77 19.164-39.891-16.483-54.071-67.106-29.262-109.098 22.323-37.785 74.299-45.384 110.483-20.55 36.183 24.835 45.384 74.3 20.549 110.484z" fill="#f9e7d7" fill-rule="evenodd"/><path clip-rule="evenodd" d="M965.49 558.419c0 20.457-12.906 52.269-21.798 67.654-18.433 31.892-55.87 53.935-92.356 59.001-48.242 6.697-153.996-1.113-173.365-3.66-20.451-2.689-55.574-7.554-97.39-25.176-9.859-4.155-19.245-10.184-27.224-15.594 9.566 13.979 49.307 95.632 68.432 130.53 20.174 36.814-202.275.639-200.694-4.693-14.465-31.96-65.052-165.481-72.728-191.167-5.674-18.99-14.6-48.551-4.743-81.964 0 0 4.071-11.751 9.434-22.415 22.844-45.419 104.031-44.136 192.521-29.364 62.824 10.487 298.881 65.721 298.881 65.721s121.03 30.67 121.03 51.127z" fill="#f9e7d7" fill-rule="evenodd"/><path d="M600.598 663.645a.857.857 0 0 1-.248-.037c-19.003-5.799-36.863-14.356-53.087-25.433a193.749 193.749 0 0 1-10.055-7.353c-.37-.289-.436-.823-.146-1.193s.822-.437 1.193-.146a191.344 191.344 0 0 0 9.967 7.287c16.081 10.98 33.786 19.462 52.624 25.211a.849.849 0 0 1 .564 1.061.849.849 0 0 1-.812.603z" fill="#403838"/><path d="M342.336 552.626c8.394 6.297 25.218 16.144 47.08 20.342 17.315 3.325 31.897 1.743 41.048 0a315.907 315.907 0 0 1-25.637 24.776c-8.557 7.383-19.937 10.599-31.074 8.678l-.17-.029-5.097-.879a19.334 19.334 0 0 1-15.291-13.69l-.024-.084c-2.656-9.202-2.546-9.21-3.407-11.722a218.05 218.05 0 0 1-7.428-27.392z" fill="#eacaac"/><path d="M306.146 713.835a.843.843 0 0 1-.387-.094c-7.739-3.964-15.943-6.698-24.383-8.128a83.657 83.657 0 0 0-12.771-1.161c-.47-.007-.845-.393-.838-.862s.415-.854.861-.838c4.361.061 8.746.459 13.03 1.185 8.612 1.458 16.98 4.248 24.875 8.291a.85.85 0 0 1-.387 1.607z" fill="#403838"/><path clip-rule="evenodd" d="M951.493 610.436c7.153-16.211 13.996-37.122 13.996-52.018 0-20.457-121.029-51.126-121.029-51.126s-17.962-4.203-45.29-10.509c22.019 22.388 65.534 76.536 82.153 89.677 20.376 16.112 36.943 21.297 70.17 23.976z" fill="#eacaac" fill-rule="evenodd"/><path clip-rule="evenodd" d="M601.99 729.675c69.355 54.22 63.542 150.088 4.165 150.088-45.721 0-94.611-1.253-126.52-54.147-31.909-52.893-24.734-115.705 16.025-140.294s87.443 10.349 106.33 44.353z" fill="#f9e7d7" fill-rule="evenodd"/><path clip-rule="evenodd" d="M497.65 878.22c49.135-6.687 63.038 1.543 95.841 1.543 29.896 0-11.419-72.961-11.419-72.961l-105.946 27.34z" fill="#f9e7d7" fill-rule="evenodd"/><path d="M454.432 763.47c-15.99 0-36.035-4.215-38.291-4.701-.45-.097-.768-.54-.684-.992s.486-.761.94-.69c.016.002.086.017.101.021 2.264.487 22.56 4.727 38.465 4.661 5.805-.035 11.727-.676 17.601-1.905a.85.85 0 1 1 .348 1.664c-5.985 1.251-12.021 1.905-17.938 1.941l-.542.001z" fill="#403838"/><path d="M997.023 208.836c-30.557-9.005-64.903-13.681-101.428-12.157-29.75 1.241-57.155 3.536-82.062 6.925-2.628 5.018-3.632 10.057-2.718 14.935 4.459 23.811 52.623 34.77 107.576 24.478 34.129-6.391 62.834-19.478 78.632-34.181z" fill="#e54630"/><path d="m992.599 51.543-.013-.024c-9.785-20.693-28.775-38.097-53.692-46.45-22.686-7.606-46.049-6.433-65.271 2.046-37.953 16.742-51.039 49.784-48.61 62.49 3.716 19.436-9.222 62.36 24.18 72.669 9.109 3.744 85.935 31.061 85.935 31.061 18.314 5.723 43.571 5.523 62.693 3.946 1.443-.119 3.012-.317 4.025-1.351s1.179-2.605 1.284-4.049c2.577-35.597 8.802-83.119-10.531-120.338z" fill="#2b2929"/><ellipse cx="910.748" cy="90.201" fill="#2b2929" rx="88.055" ry="85.444" transform="matrix(.3179 -.9481 .9481 .3179 535.7271 925.0409)"/><circle cx="977.715" cy="128.343" fill="#f7b4a3" transform="matrix(.6466 -.7629 .7629 .6466 247.6466 791.2142)" r="20.104"/><path clip-rule="evenodd" d="m908.114 32.563 38.694 12.973c28.049 9.403 43.164 39.764 33.761 67.813l-2.027 6.046c-8.284 24.709-35.031 38.025-59.74 29.741l-50.786-17.027c-22.658-7.597-36.061-30.932-31.208-54.332.382-1.83.872-3.636 1.467-5.408l2.027-6.046c9.402-28.048 39.763-43.163 67.812-33.76-.001 0-.001 0 0 0z" fill="#f7b4a3" fill-rule="evenodd"/><path clip-rule="evenodd" d="M881.336 177.453c-43.592-14.414-61.356-50.058-50.412-83.161s51.263-49.541 90.05-36.716 61.356 50.057 50.412 83.16-46.458 51.13-90.05 36.717z" fill="#f7b4a3" fill-rule="evenodd"/><circle cx="832.338" cy="81.301" fill="#f7b4a3" r="20.104"/><path clip-rule="evenodd" d="M855.491 36.804c-11.548 14.951 2.695 25.138 2.917 24.815 10.231-12.925 60.37 3.34 71.517 10.014 17.801 10.658 39.102 25.666 44.222 35.208s9.929-14.864 5.236-30.586c-7.853-26.306-112.344-54.402-123.892-39.451z" fill="#dda094" fill-rule="evenodd"/><path d="M956.867 94.762a5.968 5.968 0 0 1-3.375-1.044c-.211-.143-9.727-6.553-19.936-9.952a6 6 0 1 1 3.791-11.385c11.9 3.963 22.463 11.122 22.907 11.425a6 6 0 0 1-3.387 10.956zM890.176 69a5.968 5.968 0 0 1-1.896-.309c-10.272-3.42-21.81-3.98-21.925-3.985a6.004 6.004 0 0 1-5.724-6.263c.148-3.309 2.939-5.855 6.257-5.726.536.023 13.281.625 25.183 4.587a6 6 0 0 1 3.797 7.588A6 6 0 0 1 890.176 69z" fill="#2b2929"/><path clip-rule="evenodd" d="M988.089 111.122a20.01 20.01 0 0 0-6.2-2.429 53.256 53.256 0 0 0 1.447-13.49c-.335-15.955-25.594-6.377-13.837 5.56 2.514 2.553 3.969 5.827 3.366 10.796-.838 6.908-2.23 14.191-4.184 21.865-8.403 32.998-50.701 48.943-86.86 44.18 40.754 13.268 74.372-1.835 87.326-31.073 9.216 4.355 20.416 1.105 25.789-7.814 5.729-9.511 2.664-21.865-6.847-27.595z" fill="#dda094" fill-rule="evenodd"/><ellipse clip-rule="evenodd" cx="936.052" cy="107.255" fill="#fff" fill-rule="evenodd" rx="11.575" ry="20.926" transform="matrix(.3159 -.9488 .9488 .3159 538.586 961.4908)"/><ellipse clip-rule="evenodd" cx="871.511" cy="85.766" fill="#fff" fill-rule="evenodd" rx="11.575" ry="20.926" transform="matrix(.3159 -.9488 .9488 .3159 514.8224 885.5536)"/><path clip-rule="evenodd" d="M880.524 48.72c1.949-3.087 3.944-7.018 6.07-10.422.538-.862 1.86-.204 1.492.744-1.172 3.018-2.522 6.234-3.386 8.484a.803.803 0 0 0 .606 1.071c10.999 2.117 20.117 4.519 30.444 8.66a2.45 2.45 0 0 0 2.94-.883c2.595-3.806 4.253-6.338 7.138-10.869.753 5.744 1.017 9.586 1.272 16.075a.846.846 0 0 0 .584.769c16.565 5.27 30.52 12.123 44.286 22.616.392.299.96.19 1.199-.241 4.338-7.787 8.437-17.329 6.943-26.01-.906-5.266-2.443-7.823-5.66-12.089-14.591-19.351-38.995-28.69-62.815-33.157-14.424-2.704-30.055-3.811-43.109 2.895-14.409 7.402-32.093 42.415-27.13 46.99 8.082 7.451 30.113-.354 39.126-14.633z" fill="#2b2929" fill-rule="evenodd"/><path d="M897.792 139.507c-7.891-1.174-14.106-9.242-12.965-9.877s20.428 2.41 27.234 3.244c.929.114.685.96.372 1.328-4.737 5.563-9.275 6.103-14.641 5.305z" fill="#fff"/><path clip-rule="evenodd" d="M969.983 65.937c1.288 2.679 3.143 24.404 4.164 38.801 1.027 14.472 12.116 34.069 9.214 52.425-11.397 72.09-62.352 108.534-26.489 115.431 23.397 4.499 75.729-45.89 95.414-39.467 14.273 4.658-8.729-19.901-16.645-37.994s-26.221-93.724-35.399-124.32c-8.558-28.528-26.525-41.345-26.095-28.34s-4.164 23.464-4.164 23.464z" fill="#2b2929" fill-rule="evenodd"/><path d="M979.948 285.872c-5.723 0-9.951-2.007-11.845-5.72-3.651-7.162 1.684-19.196 14.638-33.017l.457-.488c20.075-21.416 50.413-53.781 45.935-63.836-5.014-11.256-7.399-28.426-9.925-46.604-2.208-15.891-4.491-32.323-8.69-45.753-13.622-43.566-30.733-58.184-47.092-69.422a.85.85 0 1 1 .963-1.401c16.604 11.407 33.968 26.232 47.752 70.316 4.241 13.563 6.534 30.066 8.751 46.026 2.509 18.056 4.879 35.11 9.794 46.146 4.938 11.086-24.646 42.646-46.247 65.69l-.457.487c-12.252 13.072-17.622 24.691-14.363 31.083 1.916 3.756 6.882 5.425 13.609 4.577 6.452-.813 13.336-9.18 21.308-18.869 10.14-12.323 22.758-27.659 40.387-35.138a.85.85 0 0 1 .664 1.566c-17.245 7.316-29.717 22.474-39.737 34.653-8.54 10.379-15.286 18.578-22.408 19.475a28.089 28.089 0 0 1-3.494.229z" fill="#2b2929"/><path d="M896.358 122.343a.847.847 0 0 1-.626-.275l-4.024-4.376a4.33 4.33 0 0 1-.143-5.68l3.844-4.629a.85.85 0 0 1 1.308 1.086l-3.845 4.629a2.622 2.622 0 0 0 .087 3.442l4.024 4.377a.85.85 0 0 1-.625 1.426z" fill="#403838"/><circle clip-path="url(#a)" cx="937.354" cy="109.763" fill="#2b2929" r="14.936"/><circle clip-path="url(#b)" cx="873.18" cy="87.853" fill="#2b2929" r="14.936"/><path d="M822.584 91.917a.846.846 0 0 1-.601-.249c-4.346-4.341-5.519-10.999-2.919-16.567 2.762-5.911 9.19-9.308 15.612-8.266a.85.85 0 1 1-.272 1.678c-5.684-.918-11.36 2.082-13.8 7.308-2.299 4.922-1.262 10.807 2.579 14.644a.85.85 0 0 1-.599 1.452z" fill="#403838"/><path d="M752.837 486.193c2.824.525 30.634 5.836 53.406 17.813 44.016 23.152 140.08 104.527 174.027 60.72 40.623-52.423 17.729-66.44-35.119-77.213-52.849-10.774-215.564-5.641-192.314-1.32z" fill="#ff5e43"/><path d="M969.76 465.281c-4.69-1.783-9.83-3.258-15.411-4.396-3.738-.762-8.073-1.311-12.891-1.672 5.242 25.697 6.09 48.579-2.792 65.577-9.507 18.195-56.134 15.772-85.536 8.446 41.84 29.888 105.669 59.196 127.14 31.49 25.612-33.052 31.301-62.264 17.531-81.417-8.52-3.248-18.976-8.627-28.041-18.028z" fill="#e54630"/><path d="M13.941 808.112a31.821 31.821 0 0 0-2.517 1.918c-3.279 3.17-6.052 6.42-8.206 10.107-4.783 8.183-3.67 17.683.465 25.414 10.958 20.486 37.514 43.162 60.366 54.799 55.625 28.326 111.201 56.767 166.826 85.092 10.736 5.467 24.353-.159 29.751-12.292l33.593-75.508a32.3 32.3 0 0 0-6.239-35.526s-58.724-67.062-75.44-56.454c-60.513 24.476-101.187 20.975-127.742 12.438-23.494-7.554-50.712-23.799-70.857-9.988z" fill="#ee2667"/><path d="m319.336 864.526-29.807 43.655s1.796-24.42-10.377-35.38c-18.8-16.927-8.767-29.949.03-20.317 6.448 7.059 22.48 2.565 30.584-.339a8.226 8.226 0 0 1 9.57 12.381z" fill="#f8a036"/><path d="M238.44 855.095c-4.061-11.161-23.699-24.612-33.674-40.153-59.516 23.68-93.679 11.609-119.969 3.157-9.383-3.017-19.359-7.416-29.242-10.737-2.298 3.134-4.265 8.163.766 12.443 42.174 35.877 88.046 27.941 111.636 36.037 21.518 7.385 42.289 13.414 50.015 15.607a8.645 8.645 0 0 0 6.115-.529l11.72-8.026c2.516-1.723 3.676-4.932 2.633-7.799z" fill="#ffadc7"/><path d="M214.659 782.906c-2.786 7.099-3.489 13.397-7.184 17.61-5.627 6.415-13.023 9.351-16.5 10.47-34.872 11.222-62.207 13.861-83.465 11.729-8.515-.854-16.054-2.474-22.713-4.615-9.52-3.061 6.33 14.14 25.602 18.746 7.61 1.819 15.634 3.23 23.923 3.977 47.164 4.248 83.233-9.24 102.312-21.607 5.61-3.637 7.766-10.768 8.849-14.506 4.636-16.009-24.411-38.144-30.824-21.804z" fill="#c7d94f"/><path d="M64 900.465c55.625 28.326 117.93 60.152 173.555 88.478 10.736 5.467 24.353-.159 29.751-12.292l12.845-28.871c2.19-4.923-.69-10.628-5.958-11.762-7.319-1.576-15.459-3.609-19.041-4.056-9.826-1.224 3.964-17.55-.557-25.153-4.52-7.603-60.791-6.344-66.341-5.741-5.55.604 6.898-16.908-2.329-19.274-9.227-2.367-59.092-3.344-74.639-3.64-15.546-.297-46.505 1.47-55.61 2.286-4.739.425-9.421 2.802-13.78 6.13 7.333 5.456 14.903 10.228 22.104 13.895z" fill="#f9e7d7"/><path d="M167.352 953.095c17.344-6.558 49.457-19.819 42.848-28.99-6.713-9.316-87.125-10.015-114.16-7.324l71.312 36.314z" fill="#f8a036"/><path d="M280.335 928.849c-4.863.198-9.039.253-11.3.027-8.234-.824 11.871-33.162-2.281-33.41-27.37-.479-46.052-.826-66.647-.305-9.465.239 24.702-17.842 2.478-20.19-22.616-2.39-128.608-2.884-114.575 4.597 6.522 3.477 76.073 4.595 92.651 5.402 11.484.559-12.823 22.595 1.137 22.174s38.171.196 59.046 3.433.429 28.868 10.246 29.496c6.397.409 16.208-2.552 25.494-2.789l3.751-8.435z" fill="#77c3ed"/><path d="m256.828 844.257-4.653 4.979c-3.741 4.003-10.019 4.215-14.022.474l-23.607-22.063c-4.003-3.741-4.215-10.019-.474-14.022l4.653-4.979c3.741-4.003 10.019-4.215 14.022-.474l23.607 22.063c4.003 3.741 4.215 10.019.474 14.022z" fill="#ee2667"/><circle cx="226.55" cy="820.623" fill="#77c3ed" r="8.062"/><circle cx="204.191" cy="844.562" fill="#403838" r="4.963"/><circle cx="167.696" cy="848.345" fill="#403838" r="4.963"/><circle cx="131.885" cy="848.386" fill="#403838" r="4.963"/><path d="M204.19 845.412a.85.85 0 0 1-.824-.645c-3.847-15.441-11.917-24.798-18.187-28.405-2.312-1.331-4.434-1.911-5.664-1.551a.85.85 0 0 1-.475-1.633c1.7-.492 4.242.131 6.987 1.71 3.189 1.835 13.984 9.384 18.988 29.468a.85.85 0 0 1-.825 1.056zm-36.492 3.783a.85.85 0 0 1-.842-.971c1.544-10.712-5.438-22.473-10.854-26.506-1.441-1.074-2.381-1.258-2.746-1.089a.85.85 0 0 1-.715-1.543c1.121-.517 2.667-.08 4.477 1.269 5.896 4.391 13.181 16.604 11.521 28.112a.851.851 0 0 1-.841.728zm-35.814.041a.851.851 0 0 1-.77-1.208c4.126-8.907 2.23-18.033-1.276-22.743-1.338-1.796-2.495-2.34-3.15-2.244a.85.85 0 1 1-.242-1.682c1.509-.215 3.197.816 4.756 2.912 3.799 5.101 5.874 14.936 1.456 24.473a.854.854 0 0 1-.774.492zm92.786-28.205a.85.85 0 0 1-.83-.67c-2.074-9.595-9.086-15.736-14.724-17.381-2.146-.626-3.406-.356-3.865.107a.85.85 0 1 1-1.207-1.197c1.071-1.082 3.042-1.276 5.549-.543 6.105 1.782 13.688 8.379 15.909 18.654a.85.85 0 0 1-.832 1.03z" fill="#403838"/><circle cx="226.55" cy="820.623" fill="#403838" r="4.622"/><path d="M38.712 865.576c-7.439-24.493-18.637-45.938-27.278-55.534-3.43 2.893-6.153 6.383-8.307 10.07-4.783 8.183-3.646 17.74.489 25.471C14.574 866.069 41.148 888.828 64 900.465l4.631 2.358c1.058-3.491 1.861-6.072 2.134-6.652 2.911-6.194-2.783-16.627-12.37-15.955-9.663.677-17.504-7.468-19.683-14.64z" fill="#f9e7d7"/><path d="m593.234 302.147-.038-.001a.85.85 0 0 1-.812-.886c.605-13.902 8.296-23.062 15.457-30.557a.849.849 0 1 1 1.228 1.175c-6.947 7.271-14.407 16.143-14.986 29.456a.852.852 0 0 1-.849.813z" fill="#403838"/><path d="M947.363 452.179c22.845 35.686 45.45 39.239 65.758 42.031 43.735 6.013 89.204 9.505 137.415-13.104 23.532-11.035 77.769-65.655 16.356-136.238-26.941-30.964-69.861-64.063-140.767-11.798-57.647 42.493-108.324 72.931-78.762 119.109z" fill="#ff5e43"/><ellipse clip-rule="evenodd" cx="493.994" cy="190.465" fill="#ff5e43" fill-rule="evenodd" rx="56.559" ry="33.301" transform="matrix(.9465 -.3228 .3228 .9465 -35.0377 169.6722)"/><path d="M1083.365 498.19c-35.656.519-40.126-21.829-46.757-34.899-6.998-13.794-16.647-24.445-28.595-25.452l-18.162 40.196c4.275 2.365 9.772 3.361 12.274 7.33 1.998 3.169 4.219 5.889 6.624 8.223 1.468.218 2.926.422 4.371.621 22.892 3.148 46.26 5.597 70.245 3.981z" fill="#e54630"/><ellipse clip-rule="evenodd" cx="977.984" cy="463.292" fill="#ff5e43" fill-rule="evenodd" rx="42.413" ry="58.168" transform="matrix(.7579 -.6523 .6523 .7579 -65.4785 750.1329)"/><path d="M528.219 178.227c-1.963-15.264-7.741-37.853-7.741-37.853a102.605 102.605 0 0 0-3.405-29.698 102.673 102.673 0 0 0-13.868-30.613c-6.589-9.467-7.677-16.603-11.541-27.752-3.077-8.879-4.279-13.401-6.947-13.068-8.795 1.099-13.067 9.267-12.78 19.816.269 9.871 6.459 31.509 3.71 33.253-1.348.855-8.143-10.45-14.14-19.131-9.916-14.352-27.743-54.915-38.932-50.178-1.386.587-3.401 2.784-3.971 3.75-6.623 11.231 9.598 37.63 9.261 37.785-3.447 1.585-24.877-34.553-34.626-31.417-2.27.73-4.436 4.047-5.08 5.837-2.54 7.064 5.564 23.953 15.827 42.86 7.513 13.841 9.141 20.145 7.545 21.208s-22.58-36.612-31.315-29.833c-7.207 5.97 2.898 29.267 6.119 35.969 6.002 12.49 15.393 30.791 33.634 49.428 16.662 17.024 25.257 24.172 36.574 29.366 0 0 2.019 2.609 5.268 14.306 3.269 11.772 68.342-8.995 66.408-24.035z" fill="#f8b5a4"/><path d="M442.73 91.228a.852.852 0 0 1-.807-.582 37.463 37.463 0 0 0-5.152-10.09 37.462 37.462 0 0 0-6.594-7.03l-.207-.17-.072-.258a23.885 23.885 0 0 0-4.117-8.215.85.85 0 0 1 1.345-1.039 25.588 25.588 0 0 1 4.336 8.54 39.14 39.14 0 0 1 12.075 17.726.85.85 0 0 1-.807 1.118zm-22.286 22.567a.85.85 0 0 1-.786-.526 18.256 18.256 0 0 0-3.833-5.823 18.308 18.308 0 0 0-5.637-3.934c-.428-.192-.62-.695-.428-1.124a.849.849 0 0 1 1.123-.428 19.968 19.968 0 0 1 6.158 4.298 19.962 19.962 0 0 1 4.188 6.363.849.849 0 0 1-.785 1.174zm64.41 33.027a.853.853 0 0 1-.679-.336c-4.059-5.354-7.329-13.927-8.974-23.52-1.682-9.813-1.41-19.12.747-25.532a.85.85 0 1 1 1.611.542c-2.039 6.063-2.295 15.298-.683 24.703 1.6 9.333 4.754 17.636 8.653 22.78a.85.85 0 0 1-.675 1.363z" fill="#403838"/><path clip-rule="evenodd" d="M503.41 220.993c-26.411 10.993-56.039 5.631-63.491-14.177.481 7.742 2.361 11.861 6.246 16.657 5.43 6.703 10.903 9.447 20.914 11.932 29.71 7.373 61.001-24.68 36.331-14.412z" fill="#e54630" fill-rule="evenodd"/><path d="M920.665 477.774c-9.324 10.684-25.138 25.447-30.679 31.455-7.29 7.904-9.502 20.827 4.984 18.204a108.427 108.427 0 0 0 19.258-5.289z" fill="#f7b4a3"/><path d="M1001.066 488.571c-18.141 13.34-19.46 34.043-31.801 52.137 14.021 18.219 17.772 32.88 15.209 36.129-4.811 6.1-15.433 8.029-36.963-14.978 16.825 9.986 27.398 32.066 15.34 36.422-7.405 2.675-27.757-8.913-41.631-26.923-4.249 2.257-5.841 41.663-16.193 43.453-14.492 2.505-19.262-63.499-11.804-80.615 10.175-23.353 13.38-33.559 21.474-50.969 13.711-24.784 20.119-36.508 43.957-51.462 5.373-3.371 21.855 6.36 32.274 20.306 10.821 14.481 15.392 33.322 10.138 36.5z" fill="#f7b4a3"/><path d="M896.777 608.331a.85.85 0 0 1-.289-1.649c4.881-1.764 7.059-6.799 7.468-10.923.286-2.871-.333-4.563-.712-4.792-2.102-1.273-8.437-1.213-9.684.445a.849.849 0 1 1-1.359-1.021c1.926-2.563 9.301-2.468 11.924-.878 1.504.912 1.761 4.025 1.523 6.415-.462 4.64-2.958 10.322-8.582 12.354a.918.918 0 0 1-.289.049zm-1.806-80.048a.85.85 0 0 1-.834-1.018c1.098-5.431 17.236-40.148 19.727-43.333a.85.85 0 1 1 1.339 1.047c-2.337 2.986-18.372 37.539-19.4 42.622a.848.848 0 0 1-.832.682zm26.251 43.925a.848.848 0 0 1-.699-.365c-10.194-14.66-4.611-28.121.788-41.138.455-1.1.911-2.199 1.358-3.298a.849.849 0 1 1 1.574.639c-.447 1.104-.905 2.207-1.362 3.31-5.465 13.175-10.626 25.62-.962 39.516a.85.85 0 0 1-.697 1.336zm41.988 5.229a.845.845 0 0 1-.525-.183c-23.745-18.737-20.418-32.334-16.895-46.73.511-2.085 1.038-4.242 1.485-6.423a.85.85 0 0 1 1.666.341c-.454 2.212-.986 4.385-1.5 6.485-3.536 14.451-6.591 26.931 16.296 44.991a.85.85 0 0 1-.527 1.519z" fill="#403838"/><path d="M974.347 578.308c-.115 0-.232-.003-.351-.01-4.642-.247-10.843-5.077-12.037-7.053-1.896-3.141 2.463-9.515 4.663-11.428.846-.735 2.718-1.546 5.748 1.292 4.011 3.754 8.083 12.232 5.53 15.592-.801 1.054-2.025 1.607-3.553 1.607zm-5.86-17.478c-.273 0-.529.079-.749.27-2.389 2.077-5.426 7.439-4.323 9.266.969 1.604 6.778 6.027 10.672 6.235 1.125.055 1.939-.243 2.461-.929 1.75-2.302-1.688-9.906-5.338-13.322-.555-.52-1.751-1.52-2.723-1.52zm-1.307-.372h.01zM957 595.789c-.28 0-.572-.018-.877-.054-4.17-.495-10.104-4.456-10.692-7.983-.845-5.066 1.498-8.313 3.972-9.662.99-.54 2.723-.685 5.353 1.7 3.482 3.158 7.528 10.126 5.943 13.857-.594 1.397-1.892 2.142-3.699 2.142zm-6.277-16.326c-.191 0-.361.039-.506.118-2.54 1.385-3.702 4.334-3.108 7.891.418 2.508 5.5 6.133 9.216 6.575 1.485.176 2.434-.181 2.81-1.065 1.124-2.645-2.151-8.876-5.521-11.933-1.133-1.028-2.164-1.586-2.891-1.586zm-.913-.628h.01zm-20.483-119.848a.85.85 0 0 1-.794-.547c-5.472-14.319-.88-31.293 10.678-39.688.919-16.31 17.447-35.324 47.843-55.025a.85.85 0 1 1 .924 1.427c-30.171 19.556-46.454 38.258-47.088 54.084a.855.855 0 0 1-.36.661c-11.189 7.872-15.664 24.18-10.408 37.934a.85.85 0 0 1-.795 1.154z" fill="#403838"/><path d="M940.039 420.055a.85.85 0 0 1-.555-1.494c5.753-4.952 13.182-7.764 21.48-8.133.479-.027.867.343.888.812s-.343.866-.812.887c-7.915.352-14.986 3.022-20.447 7.723a.85.85 0 0 1-.554.205z" fill="#403838"/></svg></g></svg>